<svg viewBox="0 0 600 400" xmlns="http://www.w3.org/2000/svg">
<g transform="translate(72, 364)">
<g>
<g>
<path d="M0,-210.21992 L0,-210.21992 L3.0075188,-210.3337 L6.0150375,-210.67616 L9.022556,-211.25104 L12.030075,-212.06471 L15.037594,-213.12665 L18.045113,-214.45006 L21.052631,-216.0528 L24.06015,-217.95874 L27.067669,-220.19989 L30.075188,-222.81958 L33.082706,-225.8776 L36.090225,-229.4586 L39.097744,-233.68724 L42.105263,-238.75626 L45.11278,-244.98495 L48.1203,-252.95456 L51.12782,-263.8739 L54.135338,-280.74942 L57.142857,-301.2774 L60.150375,-299.99933 L63.157894,-281.36752 L66.16541,-293.728 L69.172935,-286.67426 L72.18045,-258.81784 L75.18797,-182.55946 L78.19549,-235.53014 L81.20301,-284.12466 L84.210526,-293.06708 L87.21805,-283.02274 L90.22556,-296.467 L93.233086,-299.9459 L96.2406,-290.34787 L99.24812,-266.61404 L102.25564,-252.73615 L105.26316,-242.81342 L108.270676,-235.02463 L111.2782,-228.57318 L114.28571,-223.04245 L117.293236,-218.18768 L120.30075,-213.85277 L123.30827,-209.93176 L126.31579,-206.34935 L129.3233,-203.04982 L132.33083,-199.99078 L135.33835,-197.1391 L138.34587,-194.4683 L141.35338,-191.95695 L144.3609,-189.58731 L147.36842,-187.34459 L150.37595,-185.21625 L153.38345,-183.1916 L156.39098,-181.26147 L159.3985,-179.41782 L162.40602,-177.65367 L165.41353,-175.96286 L168.42105,-174.33994 L171.42857,-172.78004 L174.4361,-171.27885 L177.4436,-169.83244 L180.45113,-168.43733 L183.45865,-167.0903 L186.46617,-165.78848 L189.47368,-164.52925 L192.4812,-163.31018 L195.48872,-162.12909 L198.49625,-160.98395 L201.50375,-159.87288 L204.51128,-158.79417 L207.5188,-157.74625 L210.52632,-156.72762 L213.53383,-155.73692 L216.54135,-154.77289 L219.54887,-153.83434 L222.5564,-152.92015 L225.5639,-152.0293 L228.57143,-151.16083 L231.57895,-150.31383 L234.58647,-149.48743 L237.59398,-148.68086 L240.6015,-147.89337 L243.60902,-147.12424 L246.61655,-146.37279 L249.62405,-145.63841 L252.63158,-144.92052 L255.6391,-144.21854 L258.6466,-143.53194 L261.65414,-142.86021 L264.66165,-142.20288 L267.66916,-141.55951 L270.6767,-140.92966 L273.6842,-140.31291 L276.69174,-139.70888 L279.69925,-139.1172 L282.70676,-138.53754 L285.7143,-137.96951 L288.7218,-137.41284 L291.7293,-136.8672 L294.73685,-136.33232 L297.74435,-135.80789 L300.7519,-135.29367 L303.7594,-134.7894 L306.7669,-134.29482 L309.77444,-133.80971 L312.78195,-133.33385 L315.78946,-132.867 L318.797,-132.40898 L321.8045,-131.9596 L324.81204,-131.51863 L327.81955,-131.08592 L330.82706,-130.6613 L333.8346,-130.24458 L336.8421,-129.83562 L339.8496,-129.43423 L342.85715,-129.0403 L345.86465,-128.65367 L348.8722,-128.2742 L351.8797,-127.90175 L354.8872,-127.5362 L357.89474,-127.17742 L360.90225,-126.8253 L363.90976,-126.47972 L366.9173,-126.140564 L369.9248,-125.80773 L372.93234,-125.48111 L375.93985,-125.16061 L378.94736,-124.84612 L381.9549,-124.53757 L384.9624,-124.23485 L387.9699,-123.937874 L390.97745,-123.64657 L393.98495,-123.36084 L396.9925,-123.08062 L400,-122.805824 L403.0075,-122.53639 L406.01505,-122.27223 L409.02255,-122.01329 L412.0301,-121.7595 L415.0376,-121.51079 L418.0451,-121.267105 L421.05264,-121.02837 L424.06015,-120.79455 L427.06766,-120.56556 L430.0752,-120.34137 L433.0827,-120.12192 L436.09024,-119.90714 L439.09775,-119.697014 L442.10526,-119.49147 L445.1128,-119.29047 L448.1203,-119.093956 L451.1278,-118.9019 L454.13535,-118.71426 L457.14285,-118.530975 L460.1504,-118.352036 L463.1579,-118.177376 L466.1654,-118.00698 L469.17294,-117.8408 L472.18045,-117.6788 L475.18796,-117.52096 L478.1955,-117.367226 L481.203,-117.21758 L484.21054,-117.072 L487.21805,-116.93044 L490.22556,-116.792885 L493.2331,-116.6593 L496.2406,-116.52966 L499.2481,-116.403946 L502.25565,-116.28212 L505.26315,-116.16418 L508.2707,-116.05008 L511.2782,-115.939804 L514.2857,-115.83334 L517.2932,-115.73067 L520.3008,-115.63177 L523.3083,-115.536606 L526.3158,-115.44518 L529.3233,-115.35748 L532.3308,-115.273476 L535.3383,-115.193146 L538.3459,-115.11649 L541.3534,-115.043495 L544.3609,-114.974144 L547.3684,-114.90842 L550.3759,-114.84631 L553.3835,-114.78781 L556.391,-114.73291 L559.3985,-114.681595 L562.406,-114.63386 L565.4135,-114.58969 L568.4211,-114.54909 L571.4286,-114.51204 L574.4361,-114.47853 L577.4436,-114.44857 L580.4511,-114.42215 L583.4586,-114.39926 L586.4662,-114.3799 L589.4737,-114.36406 L592.4812,-114.351746" fill="none" stroke="burlywood" stroke-linejoin="round" stroke-width="2"/>
</g>
</g>
<g>
<g>
<line stroke="black" stroke-width="1" x1="0" x2="0" y1="0" y2="10"/>
<line stroke="black" stroke-width="1" x1="96" x2="96" y1="0" y2="10"/>
<line stroke="black" stroke-width="1" x1="192" x2="192" y1="0" y2="10"/>
<line stroke="black" stroke-width="1" x1="288" x2="288" y1="0" y2="10"/>
<line stroke="black" stroke-width="1" x1="384" x2="384" y1="0" y2="10"/>
<line stroke="black" stroke-width="1" x1="480" x2="480" y1="0" y2="10"/>
</g>
<line stroke="black" stroke-width="1" x1="0" x2="480" y1="0" y2="0"/>
<g>
<text font-size="12" text-anchor="middle" x="0" y="20">
0
</text>
<text font-size="12" text-anchor="middle" x="96" y="20">
20
</text>
<text font-size="12" text-anchor="middle" x="192" y="20">
40
</text>
<text font-size="12" text-anchor="middle" x="288" y="20">
60
</text>
<text font-size="12" text-anchor="middle" x="384" y="20">
80
</text>
<text font-size="12" text-anchor="middle" x="480" y="20">
100
</text>
</g>
<text font-size="12" text-anchor="middle" x="240" y="30">

</text>
</g>
<g>
<g>
<line stroke="black" stroke-width="1" x1="0" x2="-10" y1="-0" y2="-0"/>
<line stroke="black" stroke-width="1" x1="0" x2="-10" y1="-113.33333333333333" y2="-113.33333333333333"/>
<line stroke="black" stroke-width="1" x1="0" x2="-10" y1="-226.66666666666666" y2="-226.66666666666666"/>
<line stroke="black" stroke-width="1" x1="0" x2="-10" y1="-340" y2="-340"/>
</g>
<line stroke="black" stroke-width="1" x1="0" x2="0" y1="0" y2="-340"/>
<g>
<text dominant-baseline="middle" font-size="12" text-anchor="end" x="-15" y="-0">
-10
</text>
<text dominant-baseline="middle" font-size="12" text-anchor="end" x="-15" y="-113.33333333333333">
0
</text>
<text dominant-baseline="middle" font-size="12" text-anchor="end" x="-15" y="-226.66666666666666">
10
</text>
<text dominant-baseline="middle" font-size="12" text-anchor="end" x="-15" y="-340">
20
</text>
</g>
<text font-size="12" text-anchor="middle" transform="rotate(-90 -36 -170)" x="-36" y="-182">

</text>
</g>
</g>
</svg>