<svg viewBox="0 0 600 400" xmlns="http://www.w3.org/2000/svg">
<g transform="translate(72, 364)">
<g>
<g>
<path d="M0,-160.04749 L0,-160.04749 L3.0075188,-160.17944 L6.0150375,-160.57861 L9.022556,-161.25522 L12.030075,-162.22763 L15.037594,-163.52473 L18.045113,-165.1899 L21.052631,-167.28738 L24.06015,-169.91202 L27.067669,-173.2004 L30.075188,-177.32965 L33.082706,-182.45198 L36.090225,-188.48569 L39.097744,-195.22345 L42.105263,-205.49167 L45.11278,-223.72763 L48.1203,-229.99425 L51.12782,-199.22697 L54.135338,-196.36421 L57.142857,-255.86482 L60.150375,-275.0531 L63.157894,-267.78714 L66.16541,-221.76808 L69.172935,-251.64053 L72.18045,-150.68887 L75.18797,-158.71606 L78.19549,-203.14288 L81.20301,-237.21002 L84.210526,-260.82425 L87.21805,-265.2796 L90.22556,-235.25073 L93.233086,-226.08139 L96.2406,-234.1363 L99.24812,-191.03862 L102.25564,-171.65622 L105.26316,-240.37294 L108.270676,-243.52292 L111.2782,-227.38152 L114.28571,-205.53854 L117.293236,-184.82014 L120.30075,-168.17467 L123.30827,-155.76396 L126.31579,-146.562 L129.3233,-139.5105 L132.33083,-133.86227 L135.33835,-129.14728 L138.34587,-125.076225 L141.35338,-121.468254 L144.3609,-118.20685 L147.36842,-115.21428 L150.37595,-112.436874 L153.38345,-109.83631 L156.39098,-107.3844 L159.3985,-105.059814 L162.40602,-102.84601 L165.41353,-100.72986 L168.42105,-98.70074 L171.42857,-96.7499 L174.4361,-94.87003 L177.4436,-93.05493 L180.45113,-91.29926 L183.45865,-89.598404 L186.46617,-87.9483 L189.47368,-86.34538 L192.4812,-84.78646 L195.48872,-83.26868 L198.49625,-81.789474 L201.50375,-80.34651 L204.51128,-78.93767 L207.5188,-77.56101 L210.52632,-76.21476 L213.53383,-74.89728 L216.54135,-73.60704 L219.54887,-72.34265 L222.5564,-71.10281 L225.5639,-69.8863 L228.57143,-68.691986 L231.57895,-67.51881 L234.58647,-66.365776 L237.59398,-65.23195 L240.6015,-64.116455 L243.60902,-63.018467 L246.61655,-61.937202 L249.62405,-60.87192 L252.63158,-59.82193 L255.6391,-58.786568 L258.6466,-57.7652 L261.65414,-56.75724 L264.66165,-55.762115 L267.66916,-54.779293 L270.6767,-53.808258 L273.6842,-52.84852 L276.69174,-51.89961 L279.69925,-50.961086 L282.70676,-50.03252 L285.7143,-49.113506 L288.7218,-48.203655 L291.7293,-47.302593 L294.73685,-46.40996 L297.74435,-45.525417 L300.7519,-44.648632 L303.7594,-43.77929 L306.7669,-42.917088 L309.77444,-42.06173 L312.78195,-41.21294 L315.78946,-40.37045 L318.797,-39.533997 L321.8045,-38.703335 L324.81204,-37.878223 L327.81955,-37.058434 L330.82706,-36.243736 L333.8346,-35.433926 L336.8421,-34.628796 L339.8496,-33.828144 L342.85715,-33.031784 L345.86465,-32.239532 L348.8722,-31.451216 L351.8797,-30.666664 L354.8872,-29.885715 L357.89474,-29.108215 L360.90225,-28.334019 L363.90976,-27.562979 L366.9173,-26.794966 L369.9248,-26.02985 L372.93234,-25.267508 L375.93985,-24.507826 L378.94736,-23.750694 L381.9549,-22.99601 L384.9624,-22.243677 L387.9699,-21.49361 L390.97745,-20.745724 L393.98495,-19.99994 L396.9925,-19.256199 L400,-18.514431 L403.0075,-17.774588 L406.01505,-17.036621 L409.02255,-16.300495 L412.0301,-15.566179 L415.0376,-14.8336525 L418.0451,-14.102903 L421.05264,-13.373929 L424.06015,-12.646736 L427.06766,-11.921341 L430.0752,-11.197773 L433.0827,-10.4760685 L436.09024,-9.756279 L439.09775,-9.0384655 L442.10526,-8.322703 L445.1128,-7.6090803 L448.1203,-6.897699 L451.1278,-6.188675 L454.13535,-5.4821405 L457.14285,-4.7782435 L460.1504,-4.0771484 L463.1579,-3.379037 L466.1654,-2.6841094 L469.17294,-1.9925859 L472.18045,-1.3047055 L475.18796,-0.6207285 L478.1955,0.059063118 L481.203,0.73436505 L484.21054,1.4048498 L487.21805,2.0701656 L490.22556,2.7299364 L493.2331,3.38376 L496.2406,4.0312085 L499.2481,4.671828 L502.25565,5.305136 L505.26315,5.930624 L508.2707,6.547756 L511.2782,7.155967 L514.2857,7.754666 L517.2932,8.343234 L520.3008,8.921025 L523.3083,9.48737 L526.3158,10.041571 L529.3233,10.582911 L532.3308,11.110649 L535.3383,11.624026 L538.3459,12.122267 L541.3534,12.604578 L544.3609,13.07016 L547.3684,13.518203 L550.3759,13.947894 L553.3835,14.358422 L556.391,14.748981 L559.3985,15.118774 L562.406,15.467021 L565.4135,15.792961 L568.4211,16.09586 L571.4286,16.37502 L574.4361,16.62977 L577.4436,16.859495 L580.4511,17.06362 L583.4586,17.241629 L586.4662,17.393057 L589.4737,17.51751 L592.4812,17.614656" fill="none" stroke="burlywood" stroke-linejoin="round" stroke-width="2"/>
</g>
</g>
<g>
<g>
<line stroke="black" stroke-width="1" x1="0" x2="0" y1="0" y2="10"/>
<line stroke="black" stroke-width="1" x1="96" x2="96" y1="0" y2="10"/>
<line stroke="black" stroke-width="1" x1="192" x2="192" y1="0" y2="10"/>
<line stroke="black" stroke-width="1" x1="288" x2="288" y1="0" y2="10"/>
<line stroke="black" stroke-width="1" x1="384" x2="384" y1="0" y2="10"/>
<line stroke="black" stroke-width="1" x1="480" x2="480" y1="0" y2="10"/>
</g>
<line stroke="black" stroke-width="1" x1="0" x2="480" y1="0" y2="0"/>
<g>
<text font-size="12" text-anchor="middle" x="0" y="20">
0
</text>
<text font-size="12" text-anchor="middle" x="96" y="20">
20
</text>
<text font-size="12" text-anchor="middle" x="192" y="20">
40
</text>
<text font-size="12" text-anchor="middle" x="288" y="20">
60
</text>
<text font-size="12" text-anchor="middle" x="384" y="20">
80
</text>
<text font-size="12" text-anchor="middle" x="480" y="20">
100
</text>
</g>
<text font-size="12" text-anchor="middle" x="240" y="30">

</text>
</g>
<g>
<g>
<line stroke="black" stroke-width="1" x1="0" x2="-10" y1="-0" y2="-0"/>
<line stroke="black" stroke-width="1" x1="0" x2="-10" y1="-113.33333333333333" y2="-113.33333333333333"/>
<line stroke="black" stroke-width="1" x1="0" x2="-10" y1="-226.66666666666666" y2="-226.66666666666666"/>
<line stroke="black" stroke-width="1" x1="0" x2="-10" y1="-340" y2="-340"/>
</g>
<line stroke="black" stroke-width="1" x1="0" x2="0" y1="0" y2="-340"/>
<g>
<text dominant-baseline="middle" font-size="12" text-anchor="end" x="-15" y="-0">
-10
</text>
<text dominant-baseline="middle" font-size="12" text-anchor="end" x="-15" y="-113.33333333333333">
0
</text>
<text dominant-baseline="middle" font-size="12" text-anchor="end" x="-15" y="-226.66666666666666">
10
</text>
<text dominant-baseline="middle" font-size="12" text-anchor="end" x="-15" y="-340">
20
</text>
</g>
<text font-size="12" text-anchor="middle" transform="rotate(-90 -36 -170)" x="-36" y="-182">

</text>
</g>
</g>
</svg>