<svg viewBox="0 0 600 400" xmlns="http://www.w3.org/2000/svg">
<g transform="translate(72, 364)">
<g>
<g>
<path d="M0,-188.69438 L0,-188.69438 L3.0075188,-188.77324 L6.0150375,-189.0109 L9.022556,-189.41057 L12.030075,-189.97777 L15.037594,-190.72061 L18.045113,-191.65016 L21.052631,-192.7811 L24.06015,-194.13248 L27.067669,-195.7291 L30.075188,-197.6032 L33.082706,-199.79727 L36.090225,-202.36815 L39.097744,-205.39372 L42.105263,-208.98402 L45.11278,-213.30077 L48.1203,-218.59438 L51.12782,-225.28035 L54.135338,-234.11688 L57.142857,-246.6909 L60.150375,-267.0481 L63.157894,-244.50095 L66.16541,-290.0672 L69.172935,-231.40283 L72.18045,-183.53853 L75.18797,-112.23708 L78.19549,-169.77148 L81.20301,-209.259 L84.210526,-244.34639 L87.21805,-267.30756 L90.22556,-299.0175 L93.233086,-254.25996 L96.2406,-231.71082 L99.24812,-216.42238 L102.25564,-204.68654 L105.26316,-195.04037 L108.270676,-186.7646 L111.2782,-179.45494 L114.28571,-172.8624 L117.293236,-166.82304 L120.30075,-161.22331 L123.30827,-155.9813 L126.31579,-151.03601 L129.3233,-146.34079 L132.33083,-141.85922 L135.33835,-137.56233 L138.34587,-133.42677 L141.35338,-129.4335 L144.3609,-125.56688 L147.36842,-121.813995 L150.37595,-118.164185 L153.38345,-114.60865 L156.39098,-111.14021 L159.3985,-107.75312 L162.40602,-104.44286 L165.41353,-101.20609 L168.42105,-98.04056 L171.42857,-94.94501 L174.4361,-91.91919 L177.4436,-88.96379 L180.45113,-86.080444 L183.45865,-83.27166 L186.46617,-80.54085 L189.47368,-77.892204 L192.4812,-75.3307 L195.48872,-72.86195 L198.49625,-70.4921 L201.50375,-68.22768 L204.51128,-66.075356 L207.5188,-64.04177 L210.52632,-62.13324 L213.53383,-60.35548 L216.54135,-58.71334 L219.54887,-57.210545 L222.5564,-55.84946 L225.5639,-54.630947 L228.57143,-53.554253 L231.57895,-52.61699 L234.58647,-51.815216 L237.59398,-51.14355 L240.6015,-50.59539 L243.60902,-50.163136 L246.61655,-49.838463 L249.62405,-49.612568 L252.63158,-49.476437 L255.6391,-49.42107 L258.6466,-49.437653 L261.65414,-49.517723 L264.66165,-49.653286 L267.66916,-49.836884 L270.6767,-50.061646 L273.6842,-50.321312 L276.69174,-50.610218 L279.69925,-50.9233 L282.70676,-51.256054 L285.7143,-51.60449 L288.7218,-51.96512 L291.7293,-52.334877 L294.73685,-52.71112 L297.74435,-53.091553 L300.7519,-53.474197 L303.7594,-53.857365 L306.7669,-54.23962 L309.77444,-54.619743 L312.78195,-54.99671 L315.78946,-55.369667 L318.797,-55.737896 L321.8045,-56.100815 L324.81204,-56.457954 L327.81955,-56.80893 L330.82706,-57.153442 L333.8346,-57.49127 L336.8421,-57.82224 L339.8496,-58.146236 L342.85715,-58.46319 L345.86465,-58.77306 L348.8722,-59.075844 L351.8797,-59.371563 L354.8872,-59.660263 L357.89474,-59.942 L360.90225,-60.216866 L363.90976,-60.484936 L366.9173,-60.746315 L369.9248,-61.001114 L372.93234,-61.249447 L375.93985,-61.49143 L378.94736,-61.72719 L381.9549,-61.95685 L384.9624,-62.180534 L387.9699,-62.398376 L390.97745,-62.610504 L393.98495,-62.81704 L396.9925,-63.01811 L400,-63.213844 L403.0075,-63.404358 L406.01505,-63.589783 L409.02255,-63.77023 L412.0301,-63.945816 L415.0376,-64.11665 L418.0451,-64.28287 L421.05264,-64.44455 L424.06015,-64.601814 L427.06766,-64.75476 L430.0752,-64.90349 L433.0827,-65.0481 L436.09024,-65.1887 L439.09775,-65.325356 L442.10526,-65.45817 L445.1128,-65.58723 L448.1203,-65.712616 L451.1278,-65.83441 L454.13535,-65.9527 L457.14285,-66.067535 L460.1504,-66.17902 L463.1579,-66.28721 L466.1654,-66.39217 L469.17294,-66.49397 L472.18045,-66.59269 L475.18796,-66.68836 L478.1955,-66.78107 L481.203,-66.87085 L484.21054,-66.95778 L487.21805,-67.04189 L490.22556,-67.12325 L493.2331,-67.201904 L496.2406,-67.2779 L499.2481,-67.35128 L502.25565,-67.42208 L505.26315,-67.490364 L508.2707,-67.55615 L511.2782,-67.61949 L514.2857,-67.68042 L517.2932,-67.73897 L520.3008,-67.79517 L523.3083,-67.84907 L526.3158,-67.90068 L529.3233,-67.95005 L532.3308,-67.99719 L535.3383,-68.04214 L538.3459,-68.084915 L541.3534,-68.12555 L544.3609,-68.16406 L547.3684,-68.20047 L550.3759,-68.2348 L553.3835,-68.26707 L556.391,-68.29729 L559.3985,-68.325485 L562.406,-68.35167 L565.4135,-68.37586 L568.4211,-68.39806 L571.4286,-68.4183 L574.4361,-68.43657 L577.4436,-68.452896 L580.4511,-68.46728 L583.4586,-68.47973 L586.4662,-68.49025 L589.4737,-68.49885 L592.4812,-68.50553" fill="none" stroke="burlywood" stroke-linejoin="round" stroke-width="2"/>
</g>
</g>
<g>
<g>
<line stroke="black" stroke-width="1" x1="0" x2="0" y1="0" y2="10"/>
<line stroke="black" stroke-width="1" x1="96" x2="96" y1="0" y2="10"/>
<line stroke="black" stroke-width="1" x1="192" x2="192" y1="0" y2="10"/>
<line stroke="black" stroke-width="1" x1="288" x2="288" y1="0" y2="10"/>
<line stroke="black" stroke-width="1" x1="384" x2="384" y1="0" y2="10"/>
<line stroke="black" stroke-width="1" x1="480" x2="480" y1="0" y2="10"/>
</g>
<line stroke="black" stroke-width="1" x1="0" x2="480" y1="0" y2="0"/>
<g>
<text font-size="12" text-anchor="middle" x="0" y="20">
0
</text>
<text font-size="12" text-anchor="middle" x="96" y="20">
20
</text>
<text font-size="12" text-anchor="middle" x="192" y="20">
40
</text>
<text font-size="12" text-anchor="middle" x="288" y="20">
60
</text>
<text font-size="12" text-anchor="middle" x="384" y="20">
80
</text>
<text font-size="12" text-anchor="middle" x="480" y="20">
100
</text>
</g>
<text font-size="12" text-anchor="middle" x="240" y="30">

</text>
</g>
<g>
<g>
<line stroke="black" stroke-width="1" x1="0" x2="-10" y1="-0" y2="-0"/>
<line stroke="black" stroke-width="1" x1="0" x2="-10" y1="-113.33333333333333" y2="-113.33333333333333"/>
<line stroke="black" stroke-width="1" x1="0" x2="-10" y1="-226.66666666666666" y2="-226.66666666666666"/>
<line stroke="black" stroke-width="1" x1="0" x2="-10" y1="-340" y2="-340"/>
</g>
<line stroke="black" stroke-width="1" x1="0" x2="0" y1="0" y2="-340"/>
<g>
<text dominant-baseline="middle" font-size="12" text-anchor="end" x="-15" y="-0">
-10
</text>
<text dominant-baseline="middle" font-size="12" text-anchor="end" x="-15" y="-113.33333333333333">
0
</text>
<text dominant-baseline="middle" font-size="12" text-anchor="end" x="-15" y="-226.66666666666666">
10
</text>
<text dominant-baseline="middle" font-size="12" text-anchor="end" x="-15" y="-340">
20
</text>
</g>
<text font-size="12" text-anchor="middle" transform="rotate(-90 -36 -170)" x="-36" y="-182">

</text>
</g>
</g>
</svg>