<svg viewBox="0 0 600 400" xmlns="http://www.w3.org/2000/svg">
<g transform="translate(72, 364)">
<g>
<g>
<path d="M0,-188.42819 L0,-188.42819 L4.848485,-107.98557 L9.69697,-283.1588 L14.545455,-28.13177 L19.39394,-340 L24.242424,-0 L29.09091,-336.7568 L33.939392,-33.990986 L38.78788,-275.84167 L43.636364,-115.25077 L48.484848,-182.83923 L53.333332,-210.31409 L58.18182,-95.4306 L63.030304,-281.3516 L67.878784,-47.575016 L72.72727,-301.80267 L77.57576,-55.77533 L82.42424,-266.73532 L87.27273,-113.16951 L92.121216,-193.74207 L96.969696,-193.6374 L101.818184,-114.40072 L106.666664,-263.71692 L111.51515,-60.39286 L116.36364,-296.85132 L121.21212,-50.491283 L126.06061,-283.74902 L130.90909,-83.929565 L135.75757,-234.66508 L140.60606,-142.57208 L145.45454,-173.193 L150.30302,-200.29367 L155.15152,-124.91966 L160,-234.89577 L164.84848,-106.3496 L169.69698,-237.08093 L174.54546,-118.99649 L179.39394,-212.7342 L184.24243,-150.83113 L189.09091,-178.1004 L193.93939,-183.72433 L198.78787,-150.7703 L203.63637,-202.8266 L208.48485,-141.1414 L213.33333,-203.21135 L218.18182,-148.44617 L223.0303,-190.77086 L227.87878,-162.92209 L232.72728,-177.39354 L237.57576,-172.53264 L242.42424,-173.33556 L247.27272,-170.41008 L252.12122,-181.01262 L256.9697,-158.96234 L261.81818,-193.56482 L266.66666,-148.43782 L271.51514,-198.96332 L276.36365,-150.71721 L281.21213,-187.45331 L286.0606,-171.68517 L290.9091,-158.27483 L295.75757,-206.40758 L300.60605,-121.83282 L305.45456,-240.02759 L310.30304,-95.72534 L315.15152,-254.40883 L320,-96.20431 L324.84848,-237.5151 L329.69696,-129.16162 L334.54544,-190.85335 L339.39395,-185.30644 L344.24243,-130.9216 L349.0909,-242.4466 L353.9394,-83.30055 L358.78787,-274.46295 L363.63635,-71.5778 L368.48486,-263.22562 L373.33334,-106.00282 L378.18182,-207.97353 L383.0303,-177.2789 L387.87878,-127.484505 L392.72726,-258.84445 L397.57574,-53.44475 L402.42426,-317.23294 L407.27274,-17.436287 L412.12122,-326.32022 L416.9697,-37.055428 L421.81818,-279.2407 L426.66666,-107.37351 L431.51514,-192.49411 L436.36365,-201.83282 L441.21213,-100.037025 L446.0606,-282.60648 L450.9091,-39.548325 L455.75757,-316.23114 L460.60605,-36.610973 L465.45456,-287.8543 L470.30304,-93.63617 L475.15152,-207.87776 L480,-188.42819" fill="none" stroke="burlywood" stroke-linejoin="round" stroke-width="2"/>
</g>
</g>
<g>
<g>
<line stroke="black" stroke-width="1" x1="0" x2="0" y1="0" y2="10"/>
<line stroke="black" stroke-width="1" x1="96" x2="96" y1="0" y2="10"/>
<line stroke="black" stroke-width="1" x1="192" x2="192" y1="0" y2="10"/>
<line stroke="black" stroke-width="1" x1="288" x2="288" y1="0" y2="10"/>
<line stroke="black" stroke-width="1" x1="384" x2="384" y1="0" y2="10"/>
<line stroke="black" stroke-width="1" x1="480" x2="480" y1="0" y2="10"/>
</g>
<line stroke="black" stroke-width="1" x1="0" x2="480" y1="0" y2="0"/>
<g>
<text font-size="12" text-anchor="middle" x="0" y="20">
0
</text>
<text font-size="12" text-anchor="middle" x="96" y="20">
0.2
</text>
<text font-size="12" text-anchor="middle" x="192" y="20">
0.4
</text>
<text font-size="12" text-anchor="middle" x="288" y="20">
0.6
</text>
<text font-size="12" text-anchor="middle" x="384" y="20">
0.8
</text>
<text font-size="12" text-anchor="middle" x="480" y="20">
1
</text>
</g>
<text font-size="12" text-anchor="middle" x="240" y="30">

</text>
</g>
<g>
<g>
<line stroke="black" stroke-width="1" x1="0" x2="-10" y1="-20.655042986651473" y2="-20.655042986651473"/>
<line stroke="black" stroke-width="1" x1="0" x2="-10" y1="-96.91556554415511" y2="-96.91556554415511"/>
<line stroke="black" stroke-width="1" x1="0" x2="-10" y1="-173.17608810165873" y2="-173.17608810165873"/>
<line stroke="black" stroke-width="1" x1="0" x2="-10" y1="-249.43661065916234" y2="-249.43661065916234"/>
<line stroke="black" stroke-width="1" x1="0" x2="-10" y1="-325.697133216666" y2="-325.697133216666"/>
</g>
<line stroke="black" stroke-width="1" x1="0" x2="0" y1="0" y2="-340"/>
<g>
<text dominant-baseline="middle" font-size="12" text-anchor="end" x="-15" y="-20.655042986651473">
-10
</text>
<text dominant-baseline="middle" font-size="12" text-anchor="end" x="-15" y="-96.91556554415511">
-5
</text>
<text dominant-baseline="middle" font-size="12" text-anchor="end" x="-15" y="-173.17608810165873">
0
</text>
<text dominant-baseline="middle" font-size="12" text-anchor="end" x="-15" y="-249.43661065916234">
5
</text>
<text dominant-baseline="middle" font-size="12" text-anchor="end" x="-15" y="-325.697133216666">
10
</text>
</g>
<text font-size="12" text-anchor="middle" transform="rotate(-90 -36 -170)" x="-36" y="-182">

</text>
</g>
</g>
</svg>