<svg viewBox="0 0 600 400" xmlns="http://www.w3.org/2000/svg">
<g transform="translate(72, 364)">
<g>
<g>
<path d="M0,-176.84412 L0,-176.84412 L4.848485,-116.258286 L9.69697,-278.72104 L14.545455,-30.350302 L19.39394,-339.91272 L24.242424,-0 L29.09091,-336.55566 L33.939392,-36.39027 L38.78788,-271.24304 L43.636364,-123.55132 L48.484848,-171.48189 L53.333332,-225.50337 L58.18182,-77.78452 L63.030304,-301.57474 L67.878784,-26.661564 L72.72727,-323.20966 L77.57576,-35.854927 L82.42424,-285.10687 L87.27273,-97.9853 L92.121216,-206.18279 L96.969696,-184.96756 L101.818184,-120.3905 L106.666664,-260.82263 L111.51515,-61.79484 L116.36364,-296.9956 L121.21212,-50.58175 L126.06061,-283.4944 L130.90909,-85.929474 L135.75757,-231.34244 L140.60606,-148.3417 L145.45454,-165.90408 L150.30302,-209.73218 L155.15152,-114.6868 L160,-246.23654 L164.84848,-95.432884 L169.69698,-247.86134 L174.54546,-109.76691 L179.39394,-220.93687 L184.24243,-144.75255 L189.09091,-182.93198 L193.93939,-180.89497 L198.78787,-152.76268 L203.63637,-202.22536 L208.48485,-141.61115 L213.33333,-203.44365 L218.18182,-148.6554 L223.0303,-190.88179 L227.87878,-163.40239 L232.72728,-177.31847 L237.57576,-172.91415 L242.42424,-173.77744 L247.27272,-169.8101 L252.12122,-182.85265 L256.9697,-156.68245 L261.81818,-197.1653 L266.66666,-144.55318 L271.51514,-203.77913 L276.36365,-146.19926 L281.21213,-192.20288 L286.0606,-167.95088 L290.9091,-161.61624 L295.75757,-204.5063 L300.60605,-123.20307 L305.45456,-239.89507 L310.30304,-95.88106 L315.15152,-254.62068 L320,-97.12063 L324.84848,-235.74525 L329.69696,-133.25363 L334.54544,-184.89185 L339.39395,-194.2881 L344.24243,-119.80127 L349.0909,-256.3611 L353.9394,-67.97962 L358.78787,-291.3878 L363.63635,-54.78987 L368.48486,-279.8731 L373.33334,-91.254265 L378.18182,-220.99652 L383.0303,-167.37949 L387.87878,-134.9451 L392.72726,-254.60957 L397.57574,-55.784748 L402.42426,-316.96445 L407.27274,-17.469461 L412.12122,-326.3581 L416.9697,-38.91655 L421.81818,-275.41034 L426.66666,-114.82548 L431.51514,-181.86246 L436.36365,-216.64114 L441.21213,-82.22443 L446.0606,-303.69244 L450.9091,-17.008104 L455.75757,-340 L460.60605,-13.720086 L465.45456,-309.59436 L470.30304,-74.95332 L475.15152,-223.65866 L480,-176.84412" fill="none" stroke="burlywood" stroke-linejoin="round" stroke-width="2"/>
</g>
</g>
<g>
<g>
<line stroke="black" stroke-width="1" x1="0" x2="0" y1="0" y2="10"/>
<line stroke="black" stroke-width="1" x1="96" x2="96" y1="0" y2="10"/>
<line stroke="black" stroke-width="1" x1="192" x2="192" y1="0" y2="10"/>
<line stroke="black" stroke-width="1" x1="288" x2="288" y1="0" y2="10"/>
<line stroke="black" stroke-width="1" x1="384" x2="384" y1="0" y2="10"/>
<line stroke="black" stroke-width="1" x1="480" x2="480" y1="0" y2="10"/>
</g>
<line stroke="black" stroke-width="1" x1="0" x2="480" y1="0" y2="0"/>
<g>
<text font-size="12" text-anchor="middle" x="0" y="20">
0
</text>
<text font-size="12" text-anchor="middle" x="96" y="20">
0.2
</text>
<text font-size="12" text-anchor="middle" x="192" y="20">
0.4
</text>
<text font-size="12" text-anchor="middle" x="288" y="20">
0.6
</text>
<text font-size="12" text-anchor="middle" x="384" y="20">
0.8
</text>
<text font-size="12" text-anchor="middle" x="480" y="20">
1
</text>
</g>
<text font-size="12" text-anchor="middle" x="240" y="30">

</text>
</g>
<g>
<g>
<line stroke="black" stroke-width="1" x1="0" x2="-10" y1="-35.653047041392924" y2="-35.653047041392924"/>
<line stroke="black" stroke-width="1" x1="0" x2="-10" y1="-104.52673753058835" y2="-104.52673753058835"/>
<line stroke="black" stroke-width="1" x1="0" x2="-10" y1="-173.40042801978376" y2="-173.40042801978376"/>
<line stroke="black" stroke-width="1" x1="0" x2="-10" y1="-242.27411850897917" y2="-242.27411850897917"/>
<line stroke="black" stroke-width="1" x1="0" x2="-10" y1="-311.1478089981746" y2="-311.1478089981746"/>
</g>
<line stroke="black" stroke-width="1" x1="0" x2="0" y1="0" y2="-340"/>
<g>
<text dominant-baseline="middle" font-size="12" text-anchor="end" x="-15" y="-35.653047041392924">
-40
</text>
<text dominant-baseline="middle" font-size="12" text-anchor="end" x="-15" y="-104.52673753058835">
-20
</text>
<text dominant-baseline="middle" font-size="12" text-anchor="end" x="-15" y="-173.40042801978376">
0
</text>
<text dominant-baseline="middle" font-size="12" text-anchor="end" x="-15" y="-242.27411850897917">
20
</text>
<text dominant-baseline="middle" font-size="12" text-anchor="end" x="-15" y="-311.1478089981746">
40
</text>
</g>
<text font-size="12" text-anchor="middle" transform="rotate(-90 -36 -170)" x="-36" y="-182">

</text>
</g>
</g>
</svg>