<svg viewBox="0 0 600 400" xmlns="http://www.w3.org/2000/svg">
<g transform="translate(72, 364)">
<g>
<g>
<path d="M0,-340 L0,-340 L4.848485,-2.986277 L9.69697,-329.10718 L14.545455,-21.013062 L19.39394,-309.88477 L24.242424,-35.55481 L29.09091,-303.99573 L33.939392,-31.640934 L38.78788,-316.0375 L43.636364,-15.225169 L48.484848,-332.33322 L53.333332,-2.6865284 L58.18182,-339.56296 L63.030304,-0 L67.878784,-339.8795 L72.72727,-0.045482147 L77.57576,-339.8595 L82.42424,-1.943257 L87.27273,-332.363 L92.121216,-19.002851 L96.969696,-303.63113 L101.818184,-58.086918 L106.666664,-259.04065 L111.51515,-101.29066 L116.36364,-224.0069 L121.21212,-123.176056 L126.06061,-217.72365 L130.90909,-113.92809 L135.75757,-240.16022 L140.60606,-82.54108 L145.45454,-275.0772 L150.30302,-49.534767 L155.15152,-301.96463 L160,-31.06752 L164.84848,-311.3043 L169.69698,-31.024426 L174.54546,-301.37302 L179.39394,-52.395107 L184.24243,-267.11264 L189.09091,-99.4674 L193.93939,-210.10669 L198.78787,-160.68205 L203.63637,-151.83725 L208.48485,-209.49365 L213.33333,-116.866585 L218.18182,-228.62923 L223.0303,-113.798615 L227.87878,-216.49196 L232.72728,-139.31119 L237.57576,-180.7251 L242.42424,-180.7251 L247.27272,-139.31119 L252.12122,-216.49196 L256.9697,-113.798615 L261.81818,-228.62923 L266.66666,-116.866585 L271.51514,-209.49365 L276.36365,-151.83725 L281.21213,-160.68205 L286.0606,-210.10669 L290.9091,-99.4674 L295.75757,-267.11264 L300.60605,-52.395107 L305.45456,-301.37302 L310.30304,-31.024426 L315.15152,-311.3043 L320,-31.06752 L324.84848,-301.96463 L329.69696,-49.534767 L334.54544,-275.0772 L339.39395,-82.54108 L344.24243,-240.16022 L349.0909,-113.92809 L353.9394,-217.72365 L358.78787,-123.176056 L363.63635,-224.0069 L368.48486,-101.29066 L373.33334,-259.04065 L378.18182,-58.086918 L383.0303,-303.63113 L387.87878,-19.002851 L392.72726,-332.363 L397.57574,-1.943257 L402.42426,-339.8595 L407.27274,-0.045482147 L412.12122,-339.8795 L416.9697,-0.000000000000056621574 L421.81818,-339.56296 L426.66666,-2.6865284 L431.51514,-332.33322 L436.36365,-15.225169 L441.21213,-316.0375 L446.0606,-31.640934 L450.9091,-303.99573 L455.75757,-35.55481 L460.60605,-309.88477 L465.45456,-21.013062 L470.30304,-329.10718 L475.15152,-2.986277 L480,-340" fill="none" stroke="burlywood" stroke-linejoin="round" stroke-width="2"/>
</g>
</g>
<g>
<g>
<line stroke="black" stroke-width="1" x1="0" x2="0" y1="0" y2="10"/>
<line stroke="black" stroke-width="1" x1="96" x2="96" y1="0" y2="10"/>
<line stroke="black" stroke-width="1" x1="192" x2="192" y1="0" y2="10"/>
<line stroke="black" stroke-width="1" x1="288" x2="288" y1="0" y2="10"/>
<line stroke="black" stroke-width="1" x1="384" x2="384" y1="0" y2="10"/>
<line stroke="black" stroke-width="1" x1="480" x2="480" y1="0" y2="10"/>
</g>
<line stroke="black" stroke-width="1" x1="0" x2="480" y1="0" y2="0"/>
<g>
<text font-size="12" text-anchor="middle" x="0" y="20">
0
</text>
<text font-size="12" text-anchor="middle" x="96" y="20">
0.2
</text>
<text font-size="12" text-anchor="middle" x="192" y="20">
0.4
</text>
<text font-size="12" text-anchor="middle" x="288" y="20">
0.6
</text>
<text font-size="12" text-anchor="middle" x="384" y="20">
0.8
</text>
<text font-size="12" text-anchor="middle" x="480" y="20">
1
</text>
</g>
<text font-size="12" text-anchor="middle" x="240" y="30">

</text>
</g>
<g>
<g>
<line stroke="black" stroke-width="1" x1="0" x2="-10" y1="-33.99892274768734" y2="-33.99892274768734"/>
<line stroke="black" stroke-width="1" x1="0" x2="-10" y1="-101.99916213709015" y2="-101.99916213709015"/>
<line stroke="black" stroke-width="1" x1="0" x2="-10" y1="-169.99940152649296" y2="-169.99940152649296"/>
<line stroke="black" stroke-width="1" x1="0" x2="-10" y1="-237.99964091589578" y2="-237.99964091589578"/>
<line stroke="black" stroke-width="1" x1="0" x2="-10" y1="-305.9998803052986" y2="-305.9998803052986"/>
</g>
<line stroke="black" stroke-width="1" x1="0" x2="0" y1="0" y2="-340"/>
<g>
<text dominant-baseline="middle" font-size="12" text-anchor="end" x="-15" y="-33.99892274768734">
-0.8
</text>
<text dominant-baseline="middle" font-size="12" text-anchor="end" x="-15" y="-101.99916213709015">
-0.4
</text>
<text dominant-baseline="middle" font-size="12" text-anchor="end" x="-15" y="-169.99940152649296">
0
</text>
<text dominant-baseline="middle" font-size="12" text-anchor="end" x="-15" y="-237.99964091589578">
0.4
</text>
<text dominant-baseline="middle" font-size="12" text-anchor="end" x="-15" y="-305.9998803052986">
0.8
</text>
</g>
<text font-size="12" text-anchor="middle" transform="rotate(-90 -48 -170)" x="-48" y="-182">

</text>
</g>
</g>
</svg>