<svg viewBox="0 0 600 400" xmlns="http://www.w3.org/2000/svg">
<g transform="translate(72, 364)">
<g>
<g>
<path d="M0,-340 L0,-340 L4.848485,-22.59682 L9.69697,-262.58548 L14.545455,-136.86153 L19.39394,-160.4507 L24.242424,-196.8124 L29.09091,-152.33145 L33.939392,-153.23186 L38.78788,-240.2693 L43.636364,-43.07974 L48.484848,-333.95352 L53.333332,-2.96656 L58.18182,-311.2378 L63.030304,-63.668705 L67.878784,-251.65172 L72.72727,-91.807365 L77.57576,-267.54337 L82.42424,-37.749912 L87.27273,-333.4706 L92.121216,-3.644862 L96.969696,-296.1875 L101.818184,-116.4053 L106.666664,-146.759 L111.51515,-250.56879 L116.36364,-58.218693 L121.21212,-290.56232 L126.06061,-60.0519 L130.90909,-247.45526 L135.75757,-148.85025 L140.60606,-119.01367 L145.45454,-288.1071 L150.30302,-10.504456 L155.15152,-339.91354 L160,-8.233593 L164.84848,-322.435 L169.69698,-16.924484 L174.54546,-333.07233 L179.39394,-0.00000000000011325434 L184.24243,-323.65024 L189.09091,-69.75257 L193.93939,-187.39833 L198.78787,-237.0332 L203.63637,-42.70462 L208.48485,-327.0725 L213.33333,-3.3002813 L218.18182,-337.8611 L223.0303,-6.3276844 L227.87878,-316.62045 L232.72728,-64.113815 L237.57576,-209.12692 L242.42424,-209.12692 L247.27272,-64.113815 L252.12122,-316.62045 L256.9697,-6.3276844 L261.81818,-337.8611 L266.66666,-3.3002813 L271.51514,-327.0725 L276.36365,-42.70462 L281.21213,-237.0332 L286.0606,-187.39833 L290.9091,-69.75257 L295.75757,-323.65024 L300.60605,-0 L305.45456,-333.07233 L310.30304,-16.924484 L315.15152,-322.435 L320,-8.233593 L324.84848,-339.91354 L329.69696,-10.504456 L334.54544,-288.1071 L339.39395,-119.01367 L344.24243,-148.85025 L349.0909,-247.45526 L353.9394,-60.0519 L358.78787,-290.56232 L363.63635,-58.218693 L368.48486,-250.56879 L373.33334,-146.759 L378.18182,-116.4053 L383.0303,-296.1875 L387.87878,-3.644862 L392.72726,-333.4706 L397.57574,-37.749912 L402.42426,-267.54337 L407.27274,-91.807365 L412.12122,-251.65172 L416.9697,-63.668705 L421.81818,-311.2378 L426.66666,-2.96656 L431.51514,-333.95352 L436.36365,-43.07974 L441.21213,-240.2693 L446.0606,-153.23186 L450.9091,-152.33145 L455.75757,-196.8124 L460.60605,-160.4507 L465.45456,-136.86153 L470.30304,-262.58548 L475.15152,-22.59682 L480,-340" fill="none" stroke="burlywood" stroke-linejoin="round" stroke-width="2"/>
</g>
</g>
<g>
<g>
<line stroke="black" stroke-width="1" x1="0" x2="0" y1="0" y2="10"/>
<line stroke="black" stroke-width="1" x1="96" x2="96" y1="0" y2="10"/>
<line stroke="black" stroke-width="1" x1="192" x2="192" y1="0" y2="10"/>
<line stroke="black" stroke-width="1" x1="288" x2="288" y1="0" y2="10"/>
<line stroke="black" stroke-width="1" x1="384" x2="384" y1="0" y2="10"/>
<line stroke="black" stroke-width="1" x1="480" x2="480" y1="0" y2="10"/>
</g>
<line stroke="black" stroke-width="1" x1="0" x2="480" y1="0" y2="0"/>
<g>
<text font-size="12" text-anchor="middle" x="0" y="20">
0
</text>
<text font-size="12" text-anchor="middle" x="96" y="20">
0.2
</text>
<text font-size="12" text-anchor="middle" x="192" y="20">
0.4
</text>
<text font-size="12" text-anchor="middle" x="288" y="20">
0.6
</text>
<text font-size="12" text-anchor="middle" x="384" y="20">
0.8
</text>
<text font-size="12" text-anchor="middle" x="480" y="20">
1
</text>
</g>
<text font-size="12" text-anchor="middle" x="240" y="30">

</text>
</g>
<g>
<g>
<line stroke="black" stroke-width="1" x1="0" x2="-10" y1="-33.96866949012048" y2="-33.96866949012048"/>
<line stroke="black" stroke-width="1" x1="0" x2="-10" y1="-101.97563182564927" y2="-101.97563182564927"/>
<line stroke="black" stroke-width="1" x1="0" x2="-10" y1="-169.98259416117804" y2="-169.98259416117804"/>
<line stroke="black" stroke-width="1" x1="0" x2="-10" y1="-237.98955649670685" y2="-237.98955649670685"/>
<line stroke="black" stroke-width="1" x1="0" x2="-10" y1="-305.9965188322356" y2="-305.9965188322356"/>
</g>
<line stroke="black" stroke-width="1" x1="0" x2="0" y1="0" y2="-340"/>
<g>
<text dominant-baseline="middle" font-size="12" text-anchor="end" x="-15" y="-33.96866949012048">
-0.8
</text>
<text dominant-baseline="middle" font-size="12" text-anchor="end" x="-15" y="-101.97563182564927">
-0.4
</text>
<text dominant-baseline="middle" font-size="12" text-anchor="end" x="-15" y="-169.98259416117804">
0
</text>
<text dominant-baseline="middle" font-size="12" text-anchor="end" x="-15" y="-237.98955649670685">
0.4
</text>
<text dominant-baseline="middle" font-size="12" text-anchor="end" x="-15" y="-305.9965188322356">
0.8
</text>
</g>
<text font-size="12" text-anchor="middle" transform="rotate(-90 -48 -170)" x="-48" y="-182">

</text>
</g>
</g>
</svg>