<svg viewBox="0 0 600 400" xmlns="http://www.w3.org/2000/svg">
<g transform="translate(72, 364)">
<g>
<g>
<path d="M0,-313.93585 L0,-313.93585 L4.848485,-17.677465 L9.69697,-330.65057 L14.545455,-3.9157374 L19.39394,-340 L24.242424,-0 L29.09091,-338.00488 L33.939392,-7.7920027 L38.78788,-325.10382 L43.636364,-24.619534 L48.484848,-305.89563 L53.333332,-44.46853 L58.18182,-287.152 L63.030304,-60.539642 L67.878784,-274.97888 L72.72727,-68.053444 L77.57576,-272.352 L82.42424,-66.10947 L87.27273,-278.05652 L92.121216,-57.846996 L96.969696,-287.42395 L101.818184,-48.91289 L106.666664,-294.47028 L111.51515,-44.970757 L116.36364,-294.4524 L121.21212,-49.36604 L126.06061,-285.72702 L130.90909,-61.936356 L135.75757,-270.16 L140.60606,-79.40099 L145.45454,-252.01219 L150.30302,-97.04408 L155.15152,-235.90355 L160,-110.85298 L164.84848,-224.82565 L169.69698,-119.12875 L174.54546,-219.08131 L179.39394,-122.89566 L184.24243,-216.54425 L189.09091,-125.03592 L193.93939,-213.99458 L198.78787,-128.67238 L203.63637,-208.80176 L208.48485,-135.6364 L213.33333,-200.11646 L218.18182,-145.75522 L223.0303,-189.03123 L227.87878,-157.24161 L232.72728,-177.715 L237.57576,-167.89993 L242.42424,-168.04402 L247.27272,-176.46187 L252.12122,-160.48778 L256.9697,-183.3235 L261.81818,-153.85132 L266.66666,-190.28787 L271.51514,-146.01198 L276.36365,-199.45123 L281.21213,-135.25479 L286.0606,-211.83427 L290.9091,-121.47842 L295.75757,-226.5169 L300.60605,-106.58429 L305.45456,-240.79916 L310.30304,-93.76387 L315.15152,-251.39345 L320,-85.96615 L324.84848,-256.1077 L329.69696,-84.28013 L334.54544,-255.18117 L339.39395,-87.06925 L344.24243,-251.54424 L349.0909,-90.3807 L353.9394,-249.75848 L358.78787,-89.55558 L363.63635,-254.02924 L368.48486,-81.36713 L373.33334,-266.17 L378.18182,-65.70362 L383.0303,-284.4886 L387.87878,-45.957718 L392.72726,-304.19647 L397.57574,-27.836548 L402.42426,-319.26804 L407.27274,-17.026667 L412.12122,-324.997 L416.9697,-16.703072 L421.81818,-320.13492 L426.66666,-25.996843 L431.51514,-307.6281 L436.36365,-40.15584 L441.21213,-293.55737 L446.0606,-52.403637 L450.9091,-284.6737 L455.75757,-56.744602 L460.60605,-285.55978 L465.45456,-50.520424 L470.30304,-296.64258 L475.15152,-35.602146 L480,-313.93585" fill="none" stroke="burlywood" stroke-linejoin="round" stroke-width="2"/>
</g>
</g>
<g>
<g>
<line stroke="black" stroke-width="1" x1="0" x2="0" y1="0" y2="10"/>
<line stroke="black" stroke-width="1" x1="96" x2="96" y1="0" y2="10"/>
<line stroke="black" stroke-width="1" x1="192" x2="192" y1="0" y2="10"/>
<line stroke="black" stroke-width="1" x1="288" x2="288" y1="0" y2="10"/>
<line stroke="black" stroke-width="1" x1="384" x2="384" y1="0" y2="10"/>
<line stroke="black" stroke-width="1" x1="480" x2="480" y1="0" y2="10"/>
</g>
<line stroke="black" stroke-width="1" x1="0" x2="480" y1="0" y2="0"/>
<g>
<text font-size="12" text-anchor="middle" x="0" y="20">
0
</text>
<text font-size="12" text-anchor="middle" x="96" y="20">
0.2
</text>
<text font-size="12" text-anchor="middle" x="192" y="20">
0.4
</text>
<text font-size="12" text-anchor="middle" x="288" y="20">
0.6
</text>
<text font-size="12" text-anchor="middle" x="384" y="20">
0.8
</text>
<text font-size="12" text-anchor="middle" x="480" y="20">
1
</text>
</g>
<text font-size="12" text-anchor="middle" x="240" y="30">

</text>
</g>
<g>
<g>
<line stroke="black" stroke-width="1" x1="0" x2="-10" y1="-26.567467754114897" y2="-26.567467754114897"/>
<line stroke="black" stroke-width="1" x1="0" x2="-10" y1="-98.40956604853844" y2="-98.40956604853844"/>
<line stroke="black" stroke-width="1" x1="0" x2="-10" y1="-170.251664342962" y2="-170.251664342962"/>
<line stroke="black" stroke-width="1" x1="0" x2="-10" y1="-242.0937626373855" y2="-242.0937626373855"/>
<line stroke="black" stroke-width="1" x1="0" x2="-10" y1="-313.9358609318091" y2="-313.9358609318091"/>
</g>
<line stroke="black" stroke-width="1" x1="0" x2="0" y1="0" y2="-340"/>
<g>
<text dominant-baseline="middle" font-size="12" text-anchor="end" x="-15" y="-26.567467754114897">
-1
</text>
<text dominant-baseline="middle" font-size="12" text-anchor="end" x="-15" y="-98.40956604853844">
-0.5
</text>
<text dominant-baseline="middle" font-size="12" text-anchor="end" x="-15" y="-170.251664342962">
0
</text>
<text dominant-baseline="middle" font-size="12" text-anchor="end" x="-15" y="-242.0937626373855">
0.5
</text>
<text dominant-baseline="middle" font-size="12" text-anchor="end" x="-15" y="-313.9358609318091">
1
</text>
</g>
<text font-size="12" text-anchor="middle" transform="rotate(-90 -48 -170)" x="-48" y="-182">

</text>
</g>
</g>
</svg>