<svg viewBox="0 0 600 400" xmlns="http://www.w3.org/2000/svg">
<g transform="translate(72, 364)">
<g>
<g>
<path d="M0,-340 L0,-340 L4.848485,-0 L9.69697,-338.71945 L14.545455,-2.3114867 L19.39394,-335.808 L24.242424,-5.3237095 L29.09091,-333.14047 L33.939392,-7.3495917 L38.78788,-331.85895 L43.636364,-7.971407 L48.484848,-331.67133 L53.333332,-8.028818 L58.18182,-331.4158 L63.030304,-8.805068 L67.878784,-329.8064 L72.72727,-11.557918 L77.57576,-325.60226 L82.42424,-17.491756 L87.27273,-317.74866 L92.121216,-27.288761 L96.969696,-306.2205 L101.818184,-40.07114 L106.666664,-292.89282 L111.51515,-53.09826 L116.36364,-281.01315 L121.21212,-63.1249 L126.06061,-273.28818 L130.90909,-68.42304 L135.75757,-270.20874 L140.60606,-69.78395 L145.45454,-269.85208 L150.30302,-69.96883 L155.15152,-268.98343 L160,-72.319496 L164.84848,-264.4707 L169.69698,-79.510185 L174.54546,-254.29066 L179.39394,-92.745636 L184.24243,-238.21622 L189.09091,-111.14171 L193.93939,-218.29698 L198.78787,-131.57512 L203.63637,-198.45189 L208.48485,-149.77782 L213.33333,-182.76076 L218.18182,-162.37758 L223.0303,-173.48428 L227.87878,-168.45937 L232.72728,-170.13397 L237.57576,-169.82024 L242.42424,-169.82024 L247.27272,-170.13397 L252.12122,-168.45937 L256.9697,-173.48428 L261.81818,-162.37758 L266.66666,-182.76076 L271.51514,-149.77782 L276.36365,-198.45189 L281.21213,-131.57512 L286.0606,-218.29698 L290.9091,-111.14171 L295.75757,-238.21622 L300.60605,-92.745636 L305.45456,-254.29066 L310.30304,-79.510185 L315.15152,-264.4707 L320,-72.319496 L324.84848,-268.98343 L329.69696,-69.96883 L334.54544,-269.85208 L339.39395,-69.78395 L344.24243,-270.20874 L349.0909,-68.42304 L353.9394,-273.28818 L358.78787,-63.1249 L363.63635,-281.01315 L368.48486,-53.09826 L373.33334,-292.89282 L378.18182,-40.07114 L383.0303,-306.2205 L387.87878,-27.288761 L392.72726,-317.74866 L397.57574,-17.491756 L402.42426,-325.60226 L407.27274,-11.557918 L412.12122,-329.8064 L416.9697,-8.805068 L421.81818,-331.4158 L426.66666,-8.028818 L431.51514,-331.67133 L436.36365,-7.971407 L441.21213,-331.85895 L446.0606,-7.3495917 L450.9091,-333.14047 L455.75757,-5.3237095 L460.60605,-335.808 L465.45456,-2.3114867 L470.30304,-338.71945 L475.15152,-0.00000000000009446247 L480,-340" fill="none" stroke="burlywood" stroke-linejoin="round" stroke-width="2"/>
</g>
</g>
<g>
<g>
<line stroke="black" stroke-width="1" x1="0" x2="0" y1="0" y2="10"/>
<line stroke="black" stroke-width="1" x1="96" x2="96" y1="0" y2="10"/>
<line stroke="black" stroke-width="1" x1="192" x2="192" y1="0" y2="10"/>
<line stroke="black" stroke-width="1" x1="288" x2="288" y1="0" y2="10"/>
<line stroke="black" stroke-width="1" x1="384" x2="384" y1="0" y2="10"/>
<line stroke="black" stroke-width="1" x1="480" x2="480" y1="0" y2="10"/>
</g>
<line stroke="black" stroke-width="1" x1="0" x2="480" y1="0" y2="0"/>
<g>
<text font-size="12" text-anchor="middle" x="0" y="20">
0
</text>
<text font-size="12" text-anchor="middle" x="96" y="20">
0.2
</text>
<text font-size="12" text-anchor="middle" x="192" y="20">
0.4
</text>
<text font-size="12" text-anchor="middle" x="288" y="20">
0.6
</text>
<text font-size="12" text-anchor="middle" x="384" y="20">
0.8
</text>
<text font-size="12" text-anchor="middle" x="480" y="20">
1
</text>
</g>
<text font-size="12" text-anchor="middle" x="240" y="30">

</text>
</g>
<g>
<g>
<line stroke="black" stroke-width="1" x1="0" x2="-10" y1="-33.69678211417566" y2="-33.69678211417566"/>
<line stroke="black" stroke-width="1" x1="0" x2="-10" y1="-101.76416386658107" y2="-101.76416386658107"/>
<line stroke="black" stroke-width="1" x1="0" x2="-10" y1="-169.8315456189865" y2="-169.8315456189865"/>
<line stroke="black" stroke-width="1" x1="0" x2="-10" y1="-237.8989273713919" y2="-237.8989273713919"/>
<line stroke="black" stroke-width="1" x1="0" x2="-10" y1="-305.9663091237973" y2="-305.9663091237973"/>
</g>
<line stroke="black" stroke-width="1" x1="0" x2="0" y1="0" y2="-340"/>
<g>
<text dominant-baseline="middle" font-size="12" text-anchor="end" x="-15" y="-33.69678211417566">
-0.8
</text>
<text dominant-baseline="middle" font-size="12" text-anchor="end" x="-15" y="-101.76416386658107">
-0.4
</text>
<text dominant-baseline="middle" font-size="12" text-anchor="end" x="-15" y="-169.8315456189865">
0
</text>
<text dominant-baseline="middle" font-size="12" text-anchor="end" x="-15" y="-237.8989273713919">
0.4
</text>
<text dominant-baseline="middle" font-size="12" text-anchor="end" x="-15" y="-305.9663091237973">
0.8
</text>
</g>
<text font-size="12" text-anchor="middle" transform="rotate(-90 -48 -170)" x="-48" y="-182">

</text>
</g>
</g>
</svg>