<svg viewBox="0 0 600 400" xmlns="http://www.w3.org/2000/svg">
<g transform="translate(72, 364)">
<g>
<g>
<path d="M0,-340 L0,-340 L4.848485,-0.00000000000045488315 L9.69697,-334.70404 L14.545455,-8.979751 L19.39394,-324.677 L24.242424,-17.291939 L29.09091,-320.1301 L33.939392,-17.240877 L38.78788,-324.31525 L43.636364,-10.372616 L48.484848,-331.99918 L53.333332,-3.5236907 L58.18182,-337.0365 L63.030304,-0.5066143 L67.878784,-338.2946 L72.72727,-0.80538785 L77.57576,-336.09634 L82.42424,-5.9707685 L87.27273,-326.43375 L92.121216,-21.473513 L96.969696,-304.71222 L101.818184,-48.296856 L106.666664,-275.39288 L111.51515,-76.58604 L116.36364,-251.71161 L121.21212,-92.83649 L126.06061,-244.45435 L130.90909,-90.96798 L135.75757,-254.24017 L140.60606,-75.53672 L145.45454,-272.41632 L150.30302,-57.6122 L155.15152,-287.48648 L160,-47.333355 L164.84848,-291.67218 L169.69698,-50.151413 L174.54546,-281.1006 L179.39394,-69.057816 L184.24243,-253.76399 L189.09091,-103.95863 L193.93939,-213.45026 L198.78787,-146.35472 L203.63637,-172.90211 L208.48485,-181.33363 L213.33333,-146.3302 L218.18182,-197.85545 L223.0303,-140.32957 L227.87878,-193.87651 L232.72728,-152.85811 L237.57576,-175.04657 L242.42424,-175.04657 L247.27272,-152.85811 L252.12122,-193.87651 L256.9697,-140.32957 L261.81818,-197.85545 L266.66666,-146.3302 L271.51514,-181.33363 L276.36365,-172.90211 L281.21213,-146.35472 L286.0606,-213.45026 L290.9091,-103.95863 L295.75757,-253.76399 L300.60605,-69.057816 L305.45456,-281.1006 L310.30304,-50.151413 L315.15152,-291.67218 L320,-47.333355 L324.84848,-287.48648 L329.69696,-57.6122 L334.54544,-272.41632 L339.39395,-75.53672 L344.24243,-254.24017 L349.0909,-90.96798 L353.9394,-244.45435 L358.78787,-92.83649 L363.63635,-251.71161 L368.48486,-76.58604 L373.33334,-275.39288 L378.18182,-48.296856 L383.0303,-304.71222 L387.87878,-21.473513 L392.72726,-326.43375 L397.57574,-5.9707685 L402.42426,-336.09634 L407.27274,-0.80538785 L412.12122,-338.2946 L416.9697,-0.5066143 L421.81818,-337.0365 L426.66666,-3.5236907 L431.51514,-331.99918 L436.36365,-10.372616 L441.21213,-324.31525 L446.0606,-17.240877 L450.9091,-320.1301 L455.75757,-17.291939 L460.60605,-324.677 L465.45456,-8.979751 L470.30304,-334.70404 L475.15152,-0 L480,-340" fill="none" stroke="burlywood" stroke-linejoin="round" stroke-width="2"/>
</g>
</g>
<g>
<g>
<line stroke="black" stroke-width="1" x1="0" x2="0" y1="0" y2="10"/>
<line stroke="black" stroke-width="1" x1="96" x2="96" y1="0" y2="10"/>
<line stroke="black" stroke-width="1" x1="192" x2="192" y1="0" y2="10"/>
<line stroke="black" stroke-width="1" x1="288" x2="288" y1="0" y2="10"/>
<line stroke="black" stroke-width="1" x1="384" x2="384" y1="0" y2="10"/>
<line stroke="black" stroke-width="1" x1="480" x2="480" y1="0" y2="10"/>
</g>
<line stroke="black" stroke-width="1" x1="0" x2="480" y1="0" y2="0"/>
<g>
<text font-size="12" text-anchor="middle" x="0" y="20">
0
</text>
<text font-size="12" text-anchor="middle" x="96" y="20">
0.2
</text>
<text font-size="12" text-anchor="middle" x="192" y="20">
0.4
</text>
<text font-size="12" text-anchor="middle" x="288" y="20">
0.6
</text>
<text font-size="12" text-anchor="middle" x="384" y="20">
0.8
</text>
<text font-size="12" text-anchor="middle" x="480" y="20">
1
</text>
</g>
<text font-size="12" text-anchor="middle" x="240" y="30">

</text>
</g>
<g>
<g>
<line stroke="black" stroke-width="1" x1="0" x2="-10" y1="-32.70826674853471" y2="-32.70826674853471"/>
<line stroke="black" stroke-width="1" x1="0" x2="-10" y1="-100.99531858219366" y2="-100.99531858219366"/>
<line stroke="black" stroke-width="1" x1="0" x2="-10" y1="-169.28237041585263" y2="-169.28237041585263"/>
<line stroke="black" stroke-width="1" x1="0" x2="-10" y1="-237.56942224951155" y2="-237.56942224951155"/>
<line stroke="black" stroke-width="1" x1="0" x2="-10" y1="-305.85647408317055" y2="-305.85647408317055"/>
</g>
<line stroke="black" stroke-width="1" x1="0" x2="0" y1="0" y2="-340"/>
<g>
<text dominant-baseline="middle" font-size="12" text-anchor="end" x="-15" y="-32.70826674853471">
-0.8
</text>
<text dominant-baseline="middle" font-size="12" text-anchor="end" x="-15" y="-100.99531858219366">
-0.4
</text>
<text dominant-baseline="middle" font-size="12" text-anchor="end" x="-15" y="-169.28237041585263">
0
</text>
<text dominant-baseline="middle" font-size="12" text-anchor="end" x="-15" y="-237.56942224951155">
0.4
</text>
<text dominant-baseline="middle" font-size="12" text-anchor="end" x="-15" y="-305.85647408317055">
0.8
</text>
</g>
<text font-size="12" text-anchor="middle" transform="rotate(-90 -48 -170)" x="-48" y="-182">

</text>
</g>
</g>
</svg>