<svg viewBox="0 0 600 400" xmlns="http://www.w3.org/2000/svg">
<g transform="translate(72, 364)">
<g>
<g>
<path d="M0,-340 L0,-340 L4.848485,-283.72958 L9.69697,-114.464096 L14.545455,-5.001495 L19.39394,-288.54767 L24.242424,-101.40012 L29.09091,-289.5978 L33.939392,-5.4438305 L38.78788,-114.80937 L43.636364,-287.86224 L48.484848,-339.36707 L53.333332,-261.78113 L58.18182,-74.872574 L63.030304,-32.365402 L67.878784,-332.77386 L72.72727,-21.630754 L77.57576,-339.98636 L82.42424,-103.28923 L87.27273,-3.7677271 L92.121216,-112.23004 L96.969696,-247.48682 L101.818184,-335.45056 L106.666664,-275.107 L111.51515,-32.711212 L116.36364,-172.21059 L121.21212,-203.50494 L126.06061,-221.88162 L130.90909,-0.000000000000037804873 L135.75757,-155.68616 L140.60606,-308.63055 L145.45454,-334.29132 L150.30302,-230.5988 L155.15152,-39.42777 L160,-81.06447 L164.84848,-335.38684 L169.69698,-1.5393122 L174.54546,-288.29294 L179.39394,-256.74445 L184.24243,-51.905632 L189.09091,-1.167755 L193.93939,-70.742615 L198.78787,-216.96542 L203.63637,-339.5139 L208.48485,-157.89084 L213.33333,-58.14112 L218.18182,-289.8517 L223.0303,-147.42816 L227.87878,-12.855205 L232.72728,-194.87457 L237.57576,-324.07855 L242.42424,-324.07855 L247.27272,-194.87457 L252.12122,-12.855205 L256.9697,-147.42816 L261.81818,-289.8517 L266.66666,-58.14112 L271.51514,-157.89084 L276.36365,-339.5139 L281.21213,-216.96542 L286.0606,-70.742615 L290.9091,-1.167755 L295.75757,-51.905632 L300.60605,-256.74445 L305.45456,-288.29294 L310.30304,-1.5393122 L315.15152,-335.38684 L320,-81.06447 L324.84848,-39.42777 L329.69696,-230.5988 L334.54544,-334.29132 L339.39395,-308.63055 L344.24243,-155.68616 L349.0909,-0 L353.9394,-221.88162 L358.78787,-203.50494 L363.63635,-172.21059 L368.48486,-32.711212 L373.33334,-275.107 L378.18182,-335.45056 L383.0303,-247.48682 L387.87878,-112.23004 L392.72726,-3.7677271 L397.57574,-103.28923 L402.42426,-339.98636 L407.27274,-21.630754 L412.12122,-332.77386 L416.9697,-32.365402 L421.81818,-74.872574 L426.66666,-261.78113 L431.51514,-339.36707 L436.36365,-287.86224 L441.21213,-114.80937 L446.0606,-5.4438305 L450.9091,-289.5978 L455.75757,-101.40012 L460.60605,-288.54767 L465.45456,-5.001495 L470.30304,-114.464096 L475.15152,-283.72958 L480,-340" fill="none" stroke="burlywood" stroke-linejoin="round" stroke-width="2"/>
</g>
</g>
<g>
<g>
<line stroke="black" stroke-width="1" x1="0" x2="0" y1="0" y2="10"/>
<line stroke="black" stroke-width="1" x1="96" x2="96" y1="0" y2="10"/>
<line stroke="black" stroke-width="1" x1="192" x2="192" y1="0" y2="10"/>
<line stroke="black" stroke-width="1" x1="288" x2="288" y1="0" y2="10"/>
<line stroke="black" stroke-width="1" x1="384" x2="384" y1="0" y2="10"/>
<line stroke="black" stroke-width="1" x1="480" x2="480" y1="0" y2="10"/>
</g>
<line stroke="black" stroke-width="1" x1="0" x2="480" y1="0" y2="0"/>
<g>
<text font-size="12" text-anchor="middle" x="0" y="20">
0
</text>
<text font-size="12" text-anchor="middle" x="96" y="20">
0.2
</text>
<text font-size="12" text-anchor="middle" x="192" y="20">
0.4
</text>
<text font-size="12" text-anchor="middle" x="288" y="20">
0.6
</text>
<text font-size="12" text-anchor="middle" x="384" y="20">
0.8
</text>
<text font-size="12" text-anchor="middle" x="480" y="20">
1
</text>
</g>
<text font-size="12" text-anchor="middle" x="240" y="30">

</text>
</g>
<g>
<g>
<line stroke="black" stroke-width="1" x1="0" x2="-10" y1="-33.53557272109284" y2="-33.53557272109284"/>
<line stroke="black" stroke-width="1" x1="0" x2="-10" y1="-101.63877878307221" y2="-101.63877878307221"/>
<line stroke="black" stroke-width="1" x1="0" x2="-10" y1="-169.74198484505158" y2="-169.74198484505158"/>
<line stroke="black" stroke-width="1" x1="0" x2="-10" y1="-237.84519090703097" y2="-237.84519090703097"/>
<line stroke="black" stroke-width="1" x1="0" x2="-10" y1="-305.94839696901033" y2="-305.94839696901033"/>
</g>
<line stroke="black" stroke-width="1" x1="0" x2="0" y1="0" y2="-340"/>
<g>
<text dominant-baseline="middle" font-size="12" text-anchor="end" x="-15" y="-33.53557272109284">
-0.8
</text>
<text dominant-baseline="middle" font-size="12" text-anchor="end" x="-15" y="-101.63877878307221">
-0.4
</text>
<text dominant-baseline="middle" font-size="12" text-anchor="end" x="-15" y="-169.74198484505158">
0
</text>
<text dominant-baseline="middle" font-size="12" text-anchor="end" x="-15" y="-237.84519090703097">
0.4
</text>
<text dominant-baseline="middle" font-size="12" text-anchor="end" x="-15" y="-305.94839696901033">
0.8
</text>
</g>
<text font-size="12" text-anchor="middle" transform="rotate(-90 -48 -170)" x="-48" y="-182">

</text>
</g>
</g>
</svg>