<svg viewBox="0 0 600 400" xmlns="http://www.w3.org/2000/svg">
<g transform="translate(72, 364)">
<g>
<g>
<path d="M0,578.0497 L0,578.0497 L0.12009007,108.67383 L0.24018013,91.61535 L0.3602702,81.63665 L0.48036027,74.55651 L0.60045034,69.06459 L0.7205404,64.577225 L0.8406305,60.783066 L0.96072054,57.49627 L1.0808107,54.596962 L1.2009007,52.003292 L1.3209908,49.656887 L1.4410808,47.514637 L1.5611709,45.543804 L1.681261,43.71895 L1.8013511,42.0199 L1.9214411,40.430393 L2.041531,38.93713 L2.1616213,37.52909 L2.2817113,36.19705 L2.4018013,34.933193 L2.5218914,33.73086 L2.6419816,32.58432 L2.7620716,31.4886 L2.8821616,30.439367 L3.0022516,29.43282 L3.1223419,28.465601 L3.2424319,27.534737 L3.362522,26.637575 L3.482612,25.771746 L3.6027021,24.935118 L3.7227921,24.12577 L3.8428822,23.341967 L3.9629722,22.58213 L4.083062,21.844824 L4.203152,21.128736 L4.3232427,20.432669 L4.4433327,19.75552 L4.5634227,19.096275 L4.6835127,18.454 L4.8036027,17.827831 L4.9236927,17.21697 L5.0437827,16.620676 L5.1638727,16.038258 L5.283963,15.469072 L5.404053,14.912524 L5.524143,14.368053 L5.644233,13.835136 L5.764323,13.313284 L5.8844132,12.802036 L6.0045033,12.3009615 L6.1245933,11.809654 L6.2446837,11.32773 L6.3647738,10.854831 L6.4848638,10.3906145 L6.604954,9.934761 L6.725044,9.486964 L6.845134,9.046937 L6.965224,8.614406 L7.085314,8.189113 L7.2054043,7.7708106 L7.3254943,7.3592663 L7.4455843,6.9542565 L7.5656743,6.5555706 L7.6857643,6.163007 L7.8058543,5.7763715 L7.9259443,5.3954825 L8.046035,5.020164 L8.166124,4.6502485 L8.286215,4.285576 L8.406304,3.9259932 L8.526395,3.5713532 L8.646485,3.221516 L8.766575,2.876346 L8.886665,2.5357146 L9.006755,2.1994977 L9.126845,1.8675758 L9.246935,1.5398349 L9.367025,1.2161646 L9.487115,0.8964593 L9.607205,0.58061713 L9.727296,0.26854 L9.847385,-0.039866474 L9.967476,-0.34469333 L10.087565,-0.6460283 L10.207656,-0.94395596 L10.327745,-1.238558 L10.447836,-1.5299133 L10.567926,-1.818098 L10.688016,-2.1031854 L10.808106,-2.385247 L10.928196,-2.6643512 L11.048286,-2.9405649 L11.168376,-3.2139518 L11.288466,-3.4845746 L11.408556,-3.7524934 L11.528646,-4.017767 L11.648737,-4.2804513 L11.7688265,-4.5406017 L11.888917,-4.7982717 L12.0090065,-5.053512 L12.129097,-5.306373 L12.2491865,-5.5569034 L12.369277,-5.8051505 L12.4893675,-6.05116 L12.609457,-6.2949758 L12.7295475,-6.5366416 L12.849637,-6.7762 L12.9697275,-7.013691 L13.089817,-7.249154 L13.209908,-7.482629 L13.329997,-7.714152 L13.450088,-7.9437604 L13.570178,-8.17149 L13.690268,-8.397375 L13.810358,-8.621449 L13.930448,-8.843746 L14.050538,-9.064297 L14.170628,-9.2831335 L14.290718,-9.500285 L14.410809,-9.715783 L14.530898,-9.929655 L14.650989,-10.14193 L14.771078,-10.352635 L14.891169,-10.561798 L15.011258,-10.7694435 L15.131349,-10.975598 L15.251438,-11.180286 L15.371529,-11.3835335 L15.491619,-11.585363 L15.611709,-11.785798 L15.731799,-11.984861 L15.851889,-12.182575 L15.971979,-12.378962 L16.09207,-12.57404 L16.212158,-12.767835 L16.332249,-12.960363 L16.45234,-13.151647 L16.57243,-13.341704 L16.69252,-13.530555 L16.812609,-13.718217 L16.9327,-13.90471 L17.05279,-14.09005 L17.17288,-14.274255 L17.29297,-14.457343 L17.41306,-14.639331 L17.53315,-14.820233 L17.65324,-15.000068 L17.77333,-15.17885 L17.89342,-15.356595 L18.01351,-15.5333185 L18.1336,-15.709035 L18.25369,-15.883759 L18.373781,-16.057505 L18.49387,-16.230286 L18.61396,-16.402117 L18.73405,-16.573011 L18.854141,-16.742983 L18.97423,-16.912043 L19.09432,-17.080204 L19.21441,-17.24748 L19.334501,-17.413883 L19.454592,-17.579426 L19.57468,-17.744118 L19.69477,-17.907972 L19.814861,-18.071001 L19.934952,-18.233213 L20.05504,-18.39462 L20.17513,-18.555237 L20.295221,-18.715069 L20.415312,-18.87413 L20.535402,-19.032427 L20.65549,-19.189974 L20.775581,-19.346777 L20.895672,-19.50285 L21.015762,-19.658197 L21.135853,-19.812832 L21.255941,-19.966764 L21.376032,-20.119999 L21.496122,-20.272549 L21.616213,-20.424421 L21.736301,-20.575626 L21.856392,-20.72617 L21.976482,-20.876062 L22.096573,-21.02531 L22.216663,-21.173923 L22.336752,-21.321909 L22.456842,-21.469276 L22.576933,-21.61603 L22.697023,-21.76218 L22.817112,-21.907734 L22.937202,-22.0527 L23.057293,-22.197083 L23.177383,-22.34089 L23.297474,-22.48413 L23.417562,-22.62681 L23.537653,-22.768936 L23.657743,-22.910515 L23.777834,-23.051554 L23.897923,-23.192059 L24.018013,-23.332035 L24.138103,-23.471493 L24.258194,-23.610434 L24.378284,-23.748867 L24.498373,-23.886797 L24.618464,-24.024231 L24.738554,-24.161175 L24.858644,-24.297634 L24.978735,-24.433615 L25.098824,-24.569122 L25.218914,-24.704163 L25.339005,-24.83874 L25.459095,-24.97286 L25.579184,-25.106531 L25.699274,-25.239756 L25.819365,-25.37254 L25.939455,-25.504889 L26.059546,-25.636806 L26.179634,-25.768301 L26.299725,-25.899374 L26.419815,-26.030031 L26.539906,-26.16028 L26.659994,-26.290121 L26.780085,-26.419563 L26.900175,-26.548609 L27.020266,-26.677261 L27.140356,-26.805529 L27.260445,-26.933413 L27.380535,-27.060919 L27.500626,-27.188051 L27.620716,-27.314814 L27.740805,-27.441212 L27.860895,-27.56725 L27.980986,-27.69293 L28.101076,-27.818258 L28.221167,-27.94324 L28.341255,-28.067875 L28.461346,-28.19217 L28.581436,-28.31613 L28.701527,-28.439756 L28.821617,-28.563053 L28.941706,-28.686028 L29.061796,-28.80868 L29.181887,-28.931015 L29.301977,-29.053036 L29.422066,-29.17475 L29.542156,-29.296154 L29.662247,-29.417257 L29.782337,-29.538061 L29.902428,-29.658567 L30.022516,-29.778784 L30.142607,-29.89871 L30.262697,-30.018353 L30.382788,-30.137712 L30.502876,-30.256792 L30.622967,-30.375597 L30.743057,-30.494131 L30.863148,-30.612394 L30.983238,-30.730392 L31.103327,-30.84813 L31.223417,-30.965605 L31.343508,-31.082825 L31.463598,-31.19979 L31.583687,-31.316505 L31.703777,-31.432974 L31.823868,-31.549198 L31.943958,-31.66518 L32.06405,-31.780924 L32.18414,-31.896431 L32.30423,-32.011707 L32.424316,-32.12675 L32.544407,-32.24157 L32.664497,-32.356163 L32.784588,-32.470535 L32.90468,-32.58469 L33.02477,-32.698624 L33.14486,-32.812347 L33.26495,-32.92586 L33.38504,-33.039165 L33.505127,-33.152264 L33.625217,-33.26516 L33.745308,-33.377853 L33.8654,-33.49035 L33.98549,-33.602654 L34.10558,-33.71476 L34.22567,-33.82668 L34.34576,-33.938408 L34.46585,-34.049953 L34.58594,-34.161312 L34.706028,-34.272495 L34.82612,-34.383495 L34.94621,-34.494324 L35.0663,-34.604973 L35.18639,-34.715454 L35.30648,-34.825768 L35.42657,-34.935913 L35.54666,-35.045895 L35.66675,-35.155712 L35.78684,-35.26537 L35.90693,-35.37487 L36.02702,-35.484215 L36.14711,-35.593407 L36.2672,-35.70245 L36.38729,-35.81134 L36.50738,-35.920086 L36.627472,-36.028683 L36.747562,-36.137142 L36.86765,-36.245457 L36.98774,-36.353634 L37.10783,-36.461678 L37.22792,-36.569584 L37.34801,-36.67736 L37.4681,-36.785004 L37.588192,-36.89252 L37.708282,-36.99991 L37.828373,-37.107174 L37.94846,-37.214317 L38.06855,-37.321342 L38.18864,-37.428246 L38.30873,-37.535034 L38.42882,-37.64171 L38.548912,-37.74827 L38.669003,-37.854717 L38.789093,-37.96106 L38.909184,-38.067295 L39.02927,-38.173424 L39.14936,-38.27945 L39.26945,-38.385372 L39.38954,-38.4912 L39.509632,-38.596928 L39.629723,-38.702557 L39.749813,-38.808094 L39.869904,-38.91354 L39.989994,-39.018894 L40.11008,-39.12416 L40.23017,-39.229343 L40.35026,-39.334435 L40.470352,-39.439445 L40.590443,-39.544376 L40.710533,-39.649227 L40.830624,-39.753998 L40.950714,-39.858692 L41.070805,-39.963314 L41.19089,-40.06786 L41.31098,-40.172337 L41.431072,-40.276745 L41.551163,-40.38108 L41.671253,-40.485355 L41.791344,-40.58956 L41.911434,-40.693707 L42.031525,-40.79779 L42.151615,-40.901817 L42.271706,-41.005783 L42.391792,-41.109695 L42.511883,-41.21355 L42.631973,-41.317352 L42.752064,-41.421104 L42.872154,-41.524807 L42.992245,-41.628464 L43.112335,-41.73207 L43.232426,-41.835632 L43.352516,-41.93915 L43.472603,-42.04263 L43.592693,-42.14607 L43.712784,-42.24947 L43.832874,-42.35283 L43.952965,-42.456158 L44.073055,-42.559452 L44.193146,-42.662712 L44.313236,-42.765945 L44.433327,-42.86915 L44.553413,-42.97232 L44.673504,-43.07547 L44.793594,-43.178596 L44.913685,-43.281696 L45.033775,-43.384777 L45.153866,-43.48784 L45.273956,-43.59088 L45.394047,-43.693905 L45.514137,-43.796917 L45.634224,-43.899914 L45.754314,-44.0029 L45.874405,-44.105877 L45.994495,-44.208843 L46.114586,-44.311802 L46.234676,-44.414753 L46.354767,-44.5177 L46.474857,-44.620647 L46.594948,-44.72359 L46.715034,-44.826534 L46.835125,-44.92948 L46.955215,-45.032433 L47.075306,-45.135387 L47.195396,-45.238346 L47.315487,-45.341312 L47.435577,-45.44429 L47.555668,-45.54728 L47.67576,-45.65028 L47.795845,-45.753296 L47.915936,-45.856323 L48.036026,-45.95937 L48.156116,-46.062435 L48.276207,-46.16552 L48.396297,-46.268627 L48.516388,-46.371754 L48.63648,-46.474907 L48.75657,-46.578087 L48.87666,-46.681293 L48.996746,-46.78453 L49.116837,-46.887794 L49.236927,-46.991093 L49.357018,-47.094425 L49.477108,-47.197792 L49.5972,-47.301193 L49.71729,-47.404633 L49.83738,-47.508114 L49.95747,-47.611637 L50.077557,-47.7152 L50.197647,-47.818806 L50.317738,-47.922462 L50.437828,-48.02616 L50.55792,-48.12991 L50.67801,-48.23371 L50.7981,-48.337563 L50.91819,-48.441467 L51.03828,-48.545425 L51.158367,-48.64944 L51.278458,-48.753517 L51.39855,-48.857647 L51.51864,-48.96184 L51.63873,-49.0661 L51.75882,-49.17042 L51.87891,-49.274807 L51.999,-49.37926 L52.11909,-49.483784 L52.239178,-49.58838 L52.35927,-49.693043 L52.47936,-49.797783 L52.59945,-49.902596 L52.71954,-50.00749 L52.83963,-50.112457 L52.95972,-50.217506 L53.07981,-50.322636 L53.1999,-50.427853 L53.31999,-50.53315 L53.44008,-50.638535 L53.56017,-50.74401 L53.68026,-50.849575 L53.80035,-50.955227 L53.92044,-51.060974 L54.04053,-51.166817 L54.16062,-51.27276 L54.280712,-51.37879 L54.4008,-51.48493 L54.52089,-51.591167 L54.64098,-51.69751 L54.76107,-51.803955 L54.88116,-51.910507 L55.00125,-52.017166 L55.12134,-52.123936 L55.241432,-52.230816 L55.361523,-52.33781 L55.48161,-52.44492 L55.6017,-52.552147 L55.72179,-52.659492 L55.84188,-52.766956 L55.96197,-52.874546 L56.08206,-52.982258 L56.202152,-53.09009 L56.322243,-53.19806 L56.442333,-53.306152 L56.562424,-53.414375 L56.68251,-53.52273 L56.8026,-53.631226 L56.92269,-53.739853 L57.04278,-53.84862 L57.162872,-53.957527 L57.282963,-54.066574 L57.403053,-54.17577 L57.523144,-54.285107 L57.643234,-54.394596 L57.76332,-54.50423 L57.88341,-54.61402 L58.0035,-54.72396 L58.123592,-54.83406 L58.243683,-54.944313 L58.363773,-55.05473 L58.483864,-55.165302 L58.603954,-55.276043 L58.724045,-55.386948 L58.84413,-55.49802 L58.964222,-55.60926 L59.084312,-55.720676 L59.204403,-55.83226 L59.324493,-55.944023 L59.444584,-56.055965 L59.564674,-56.168087 L59.684765,-56.280388 L59.804855,-56.392876 L59.924942,-56.505547 L60.045033,-56.61841 L60.165123,-56.73146 L60.285213,-56.844707 L60.405304,-56.95815 L60.525394,-57.071785 L60.645485,-57.185623 L60.765575,-57.299664 L60.885666,-57.413906 L61.005753,-57.528355 L61.125843,-57.643013 L61.245934,-57.757885 L61.366024,-57.872967 L61.486115,-57.988266 L61.606205,-58.103783 L61.726295,-58.21952 L61.846386,-58.335484 L61.966476,-58.451668 L62.086563,-58.568085 L62.206654,-58.68473 L62.326744,-58.80161 L62.446835,-58.91872 L62.566925,-59.03607 L62.687016,-59.153664 L62.807106,-59.2715 L62.927197,-59.389584 L63.047287,-59.50791 L63.167374,-59.626495 L63.287464,-59.74533 L63.407555,-59.86442 L63.527645,-59.983776 L63.647736,-60.10339 L63.767826,-60.223267 L63.887917,-60.343414 L64.008,-60.46383 L64.1281,-60.584522 L64.248184,-60.70549 L64.36828,-60.826736 L64.488365,-60.948265 L64.60846,-61.070076 L64.728546,-61.19218 L64.84863,-61.314575 L64.96873,-61.43726 L65.08881,-61.560246 L65.20891,-61.683533 L65.328995,-61.807125 L65.44909,-61.93102 L65.569176,-62.05523 L65.68927,-62.17975 L65.80936,-62.304585 L65.92944,-62.429745 L66.04954,-62.555225 L66.169624,-62.681034 L66.28972,-62.80717 L66.409805,-62.933643 L66.5299,-63.060455 L66.64999,-63.187607 L66.77008,-63.3151 L66.89017,-63.442944 L67.010254,-63.57114 L67.13035,-63.699688 L67.250435,-63.828598 L67.37053,-63.957874 L67.490616,-64.08751 L67.61071,-64.21752 L67.7308,-64.34791 L67.85089,-64.478676 L67.97098,-64.60982 L68.09107,-64.741356 L68.21116,-64.873276 L68.331245,-65.0056 L68.45134,-65.13831 L68.57143,-65.27144 L68.69152,-65.40497 L68.81161,-65.53891 L68.9317,-65.67327 L69.05179,-65.80805 L69.17188,-65.94325 L69.29197,-66.07889 L69.412056,-66.21496 L69.53215,-66.35147 L69.65224,-66.48843 L69.77233,-66.62583 L69.89242,-66.76369 L70.01251,-66.902 L70.1326,-67.04078 L70.25269,-67.18003 L70.37278,-67.319756 L70.49287,-67.45996 L70.61296,-67.60065 L70.73305,-67.74182 L70.85314,-67.8835 L70.97323,-68.02567 L71.09332,-68.16835 L71.21341,-68.31155 L71.3335,-68.45525 L71.45359,-68.59949 L71.57368,-68.74425 L71.69377,-68.88955 L71.81386,-69.03539 L71.93395,-69.18178 L72.05404,-69.32872 L72.17413,-69.47622 L72.29422,-69.62429 L72.414314,-69.772934 L72.5344,-69.92215 L72.65449,-70.07196 L72.77458,-70.22236 L72.89467,-70.37336 L73.01476,-70.52497 L73.13485,-70.67719 L73.254944,-70.83003 L73.37503,-70.983505 L73.495125,-71.13761 L73.61521,-71.292366 L73.7353,-71.44777 L73.85539,-71.60383 L73.97548,-71.76056 L74.09557,-71.91796 L74.21566,-72.07604 L74.335754,-72.234825 L74.45584,-72.3943 L74.575935,-72.55448 L74.69602,-72.715385 L74.81611,-72.877014 L74.9362,-73.039375 L75.05629,-73.202484 L75.176384,-73.36634 L75.29647,-73.53097 L75.416565,-73.69636 L75.53665,-73.86254 L75.656746,-74.0295 L75.77683,-74.19727 L75.89692,-74.36586 L76.01701,-74.53526 L76.1371,-74.705505 L76.257195,-74.87659 L76.37728,-75.04852 L76.497375,-75.22133 L76.61746,-75.395004 L76.73756,-75.56958 L76.85764,-75.74505 L76.97773,-75.92143 L77.097824,-76.09875 L77.21791,-76.27699 L77.338005,-76.45619 L77.45809,-76.63636 L77.578186,-76.8175 L77.69827,-76.99963 L77.81837,-77.18277 L77.93845,-77.36692 L78.05854,-77.55211 L78.178635,-77.73834 L78.29872,-77.92564 L78.418816,-78.114006 L78.5389,-78.303474 L78.659,-78.49405 L78.77908,-78.685745 L78.89918,-78.878586 L79.019264,-79.07258 L79.13935,-79.26775 L79.259445,-79.46412 L79.37953,-79.66169 L79.499626,-79.8605 L79.61971,-80.06055 L79.73981,-80.261856 L79.85989,-80.46446 L79.97999,-80.668365 L80.100075,-80.873604 L80.22016,-81.080185 L80.340256,-81.28813 L80.46034,-81.49747 L80.58044,-81.70821 L80.70052,-81.9204 L80.82062,-82.13404 L80.940704,-82.34917 L81.0608,-82.565796 L81.180885,-82.78396 L81.30097,-83.00368 L81.42107,-83.224976 L81.54115,-83.44788 L81.66125,-83.67243 L81.781334,-83.89865 L81.90143,-84.12656 L82.021515,-84.35619 L82.14161,-84.58758 L82.261696,-84.82075 L82.38178,-85.05574 L82.50188,-85.29258 L82.62196,-85.53131 L82.74206,-85.77195 L82.862144,-86.01455 L82.98224,-86.25914 L83.102325,-86.50576 L83.22242,-86.75445 L83.34251,-87.00524 L83.4626,-87.25818 L83.58269,-87.513306 L83.702774,-87.77067 L83.82287,-88.03031 L83.942955,-88.29227 L84.06305,-88.5566 L84.183136,-88.82335 L84.30323,-89.09257 L84.42332,-89.3643 L84.54341,-89.63862 L84.6635,-89.91556 L84.783585,-90.195175 L84.90368,-90.47754 L85.023766,-90.7627 L85.14386,-91.050735 L85.26395,-91.3417 L85.38404,-91.63565 L85.50413,-91.93267 L85.62422,-92.23283 L85.74431,-92.53619 L85.864395,-92.84283 L85.98449,-93.15283 L86.104576,-93.466286 L86.22467,-93.783264 L86.34476,-94.10386 L86.46485,-94.42816 L86.58494,-94.75626 L86.70503,-95.088264 L86.82512,-95.42426 L86.945206,-95.764366 L87.0653,-96.10869 L87.18539,-96.45734 L87.30548,-96.81043 L87.42557,-97.1681 L87.54566,-97.530464 L87.66575,-97.89767 L87.78584,-98.269844 L87.90593,-98.64714 L88.02602,-99.02971 L88.14611,-99.41771 L88.2662,-99.81132 L88.38629,-100.21069 L88.50638,-100.61602 L88.62647,-101.027504 L88.74656,-101.445335 L88.86665,-101.86972 L88.98674,-102.30089 L89.10683,-102.739075 L89.22692,-103.18452 L89.34701,-103.637474 L89.4671,-104.09822 L89.58719,-104.56705 L89.70728,-105.04424 L89.82737,-105.53014 L89.947464,-106.02507 L90.06755,-106.529396 L90.18764,-107.0435 L90.30773,-107.56778 L90.42782,-108.10267 L90.54791,-108.64861 L90.668,-109.206116 L90.78809,-109.77569 L90.90818,-110.35789 L91.028275,-110.95331 L91.14836,-111.562584 L91.26845,-112.1864 L91.38854,-112.8255 L91.50863,-113.48067 L91.62872,-114.15276 L91.74881,-114.84271 L91.868904,-115.55153 L91.98899,-116.28029 L92.109085,-117.0302 L92.22917,-117.80255 L92.34926,-118.59876 L92.46935,-119.42041 L92.58944,-120.269196 L92.70953,-121.14704 L92.82962,-122.05604 L92.949715,-122.998535 L93.0698,-123.97716 L93.189896,-124.99484 L93.30998,-126.05491 L93.43007,-127.16111 L93.55016,-128.31772 L93.67025,-129.52965 L93.790344,-130.80252 L93.91043,-132.14293 L94.030525,-133.55853 L94.15061,-135.05843 L94.270706,-136.65341 L94.39079,-138.35654 L94.51088,-140.18373 L94.630974,-142.15472 L94.75106,-144.29436 L94.871155,-146.6345 L94.99124,-149.21709 L95.111336,-152.09862 L95.23142,-155.35811 L95.35152,-159.11067 L95.4716,-163.53365 L95.59169,-168.92142 L95.711784,-175.81853 L95.83187,-185.41972 L95.951965,-201.34958 L96.07205,-260.3755 L96.19215,-206.3216 L96.31223,-187.94885 L96.43233,-177.55867 L96.552414,-170.28387 L96.6725,-164.68272 L96.792595,-160.12851 L96.91268,-156.2916 L97.032776,-152.97708 L97.15286,-150.06006 L97.27296,-147.45567 L97.39304,-145.10365 L97.51314,-142.95963 L97.633224,-140.98997 L97.75332,-139.16862 L97.873405,-137.47496 L97.99349,-135.89238 L98.11359,-134.4073 L98.23367,-133.00851 L98.35377,-131.68663 L98.473854,-130.43372 L98.59395,-129.243 L98.714035,-128.10866 L98.83413,-127.02566 L98.954216,-125.9896 L99.0743,-124.99665 L99.1944,-124.043396 L99.31448,-123.12682 L99.43458,-122.24427 L99.554665,-121.39332 L99.67476,-120.57183 L99.794846,-119.777855 L99.91494,-119.00965 L100.03503,-118.26561 L100.15511,-117.5443 L100.27521,-116.84438 L100.395294,-116.16466 L100.51539,-115.504005 L100.635475,-114.86141 L100.75557,-114.23593 L100.875656,-113.6267 L100.99575,-113.032906 L101.11584,-112.4538 L101.23592,-111.888695 L101.35602,-111.33694 L101.476105,-110.797935 L101.5962,-110.27112 L101.716286,-109.75596 L101.83638,-109.25197 L101.95647,-108.758675 L102.07656,-108.27566 L102.19665,-107.802505 L102.316734,-107.33883 L102.43683,-106.88426 L102.556915,-106.43848 L102.67701,-106.00113 L102.7971,-105.57193 L102.91719,-105.15059 L103.03728,-104.736824 L103.15737,-104.330376 L103.27746,-103.931 L103.397545,-103.53846 L103.51764,-103.152534 L103.637726,-102.77301 L103.75782,-102.39969 L103.87791,-102.03237 L103.998,-101.67087 L104.11809,-101.31501 L104.23818,-100.96464 L104.35827,-100.619576 L104.478355,-100.27968 L104.59845,-99.94479 L104.71854,-99.61478 L104.83863,-99.289505 L104.95872,-98.96885 L105.07881,-98.65267 L105.1989,-98.34086 L105.31899,-98.033295 L105.43908,-97.72987 L105.559166,-97.43048 L105.67926,-97.135025 L105.79935,-96.8434 L105.91944,-96.55552 L106.03953,-96.27128 L106.15962,-95.99061 L106.27971,-95.7134 L106.3998,-95.4396 L106.51989,-95.1691 L106.63998,-94.90184 L106.76007,-94.63775 L106.88016,-94.376755 L107.00025,-94.118774 L107.12034,-93.863754 L107.24043,-93.61163 L107.36052,-93.36234 L107.48061,-93.115814 L107.6007,-92.872 L107.72079,-92.630844 L107.84088,-92.39229 L107.96097,-92.15628 L108.08106,-91.92277 L108.20115,-91.6917 L108.32124,-91.463036 L108.44133,-91.23671 L108.561424,-91.012695 L108.68151,-90.79094 L108.8016,-90.571396 L108.92169,-90.35403 L109.04178,-90.138794 L109.16187,-89.92566 L109.28196,-89.71458 L109.402054,-89.50551 L109.52214,-89.29842 L109.642235,-89.093285 L109.76232,-88.89005 L109.88241,-88.688705 L110.0025,-88.4892 L110.12259,-88.291504 L110.24268,-88.09559 L110.36277,-87.90143 L110.482864,-87.70899 L110.60295,-87.51824 L110.723045,-87.32916 L110.84313,-87.141716 L110.96322,-86.95588 L111.08331,-86.77163 L111.2034,-86.588936 L111.323494,-86.407776 L111.44358,-86.22812 L111.563675,-86.04996 L111.68376,-85.87325 L111.803856,-85.69799 L111.92394,-85.52415 L112.04403,-85.35169 L112.16412,-85.18062 L112.28421,-85.010895 L112.404305,-84.84251 L112.52439,-84.67544 L112.644485,-84.50966 L112.76457,-84.34515 L112.88467,-84.18191 L113.00475,-84.0199 L113.12485,-83.859116 L113.244934,-83.69953 L113.36502,-83.54114 L113.485115,-83.38391 L113.6052,-83.227844 L113.725296,-83.072914 L113.84538,-82.9191 L113.96548,-82.766396 L114.08556,-82.61479 L114.20566,-82.46426 L114.325745,-82.31478 L114.44583,-82.16637 L114.565926,-82.018974 L114.68601,-81.87261 L114.80611,-81.72726 L114.92619,-81.58289 L115.04629,-81.439514 L115.166374,-81.297104 L115.28647,-81.15565 L115.406555,-81.015144 L115.52664,-80.875565 L115.646736,-80.736916 L115.76682,-80.599174 L115.88692,-80.462326 L116.007,-80.32637 L116.1271,-80.19129 L116.247185,-80.05708 L116.36728,-79.92372 L116.487366,-79.791214 L116.60745,-79.65954 L116.72755,-79.52869 L116.84763,-79.39865 L116.96773,-79.269424 L117.087814,-79.141 L117.20791,-79.01336 L117.327995,-78.88649 L117.44809,-78.7604 L117.56818,-78.63506 L117.68826,-78.51048 L117.80836,-78.38665 L117.928444,-78.26355 L118.04854,-78.141174 L118.168625,-78.01952 L118.28872,-77.89858 L118.408806,-77.77834 L118.5289,-77.6588 L118.64899,-77.53994 L118.76907,-77.42177 L118.88917,-77.30427 L119.009254,-77.18743 L119.12935,-77.07126 L119.249435,-76.955734 L119.36953,-76.84086 L119.48962,-76.72662 L119.60971,-76.613014 L119.7298,-76.50004 L119.849884,-76.38767 L119.96998,-76.275925 L120.090065,-76.16478 L120.21016,-76.05424 L120.330246,-75.94429 L120.45034,-75.83493 L120.57043,-75.72615 L120.69052,-75.61795 L120.81061,-75.51032 L120.930695,-75.40326 L121.05079,-75.29675 L121.170876,-75.190796 L121.29097,-75.085396 L121.41106,-74.98054 L121.53115,-74.87621 L121.65124,-74.77242 L121.77133,-74.66917 L121.89142,-74.56642 L122.011505,-74.4642 L122.1316,-74.362495 L122.251686,-74.2613 L122.37178,-74.1606 L122.49187,-74.0604 L122.61196,-73.9607 L122.73205,-73.86149 L122.85214,-73.76276 L122.97223,-73.66451 L123.092316,-73.56674 L123.21241,-73.46944 L123.3325,-73.372604 L123.45259,-73.27624 L123.57268,-73.18033 L123.69277,-73.08488 L123.81286,-72.98987 L123.93295,-72.89532 L124.05304,-72.8012 L124.17313,-72.70753 L124.29322,-72.61429 L124.41331,-72.521484 L124.5334,-72.42911 L124.65349,-72.33715 L124.77358,-72.24562 L124.89367,-72.1545 L125.01376,-72.0638 L125.13385,-71.9735 L125.25394,-71.88362 L125.37403,-71.794136 L125.49412,-71.705055 L125.61421,-71.61636 L125.7343,-71.52807 L125.85439,-71.44017 L125.97448,-71.352646 L126.094574,-71.26552 L126.21466,-71.178764 L126.33475,-71.092384 L126.45484,-71.006386 L126.57493,-70.92075 L126.69502,-70.83549 L126.81511,-70.75059 L126.9352,-70.66605 L127.05529,-70.58188 L127.175385,-70.49806 L127.29547,-70.41459 L127.41556,-70.331474 L127.53565,-70.24871 L127.65574,-70.16629 L127.77583,-70.08421 L127.89592,-70.00247 L128.016,-69.92107 L128.13611,-69.840004 L128.2562,-69.75927 L128.37628,-69.67886 L128.49637,-69.598785 L128.61646,-69.519035 L128.73656,-69.439606 L128.85664,-69.3605 L128.97673,-69.2817 L129.09682,-69.203224 L129.21692,-69.12506 L129.337,-69.0472 L129.45709,-68.96966 L129.57718,-68.89242 L129.69727,-68.81548 L129.81737,-68.738846 L129.93745,-68.662506 L130.05754,-68.58647 L130.17763,-68.51073 L130.29773,-68.43527 L130.41782,-68.36011 L130.5379,-68.28524 L130.65799,-68.210655 L130.77808,-68.13635 L130.89818,-68.06233 L131.01826,-67.988594 L131.13835,-67.91513 L131.25844,-67.84194 L131.37854,-67.769035 L131.49863,-67.696396 L131.61871,-67.62403 L131.7388,-67.55193 L131.85889,-67.4801 L131.97899,-67.40854 L132.09908,-67.337234 L132.21916,-67.2662 L132.33925,-67.19541 L132.45935,-67.124886 L132.57944,-67.05462 L132.69952,-66.98461 L132.81961,-66.91485 L132.9397,-66.84534 L133.0598,-66.77608 L133.17989,-66.70707 L133.29997,-66.638306 L133.42006,-66.56978 L133.54016,-66.5015 L133.66025,-66.433464 L133.78033,-66.36567 L133.90042,-66.2981 L134.02051,-66.23078 L134.14061,-66.1637 L134.2607,-66.09684 L134.38078,-66.03021 L134.50087,-65.96382 L134.62097,-65.89766 L134.74106,-65.831726 L134.86115,-65.766014 L134.98123,-65.70052 L135.10133,-65.63526 L135.22142,-65.57022 L135.3415,-65.5054 L135.4616,-65.4408 L135.58168,-65.37642 L135.70178,-65.31225 L135.82187,-65.24829 L135.94196,-65.184555 L136.06204,-65.121025 L136.18214,-65.05771 L136.30223,-64.994606 L136.42232,-64.9317 L136.5424,-64.86901 L136.66249,-64.806526 L136.7826,-64.74425 L136.90268,-64.68217 L137.02277,-64.620285 L137.14285,-64.55862 L137.26295,-64.49714 L137.38304,-64.43586 L137.50313,-64.37478 L137.62321,-64.313896 L137.7433,-64.253204 L137.8634,-64.19271 L137.98349,-64.1324 L138.10358,-64.07229 L138.22366,-64.01237 L138.34377,-63.952637 L138.46385,-63.893093 L138.58394,-63.833733 L138.70403,-63.774563 L138.82411,-63.715576 L138.94421,-63.656773 L139.0643,-63.598152 L139.18439,-63.53971 L139.30447,-63.481453 L139.42458,-63.423374 L139.54466,-63.36547 L139.66475,-63.307747 L139.78484,-63.250202 L139.90492,-63.19283 L140.02502,-63.13563 L140.14511,-63.07861 L140.2652,-63.02176 L140.38528,-62.96508 L140.50539,-62.90857 L140.62547,-62.85223 L140.74556,-62.79606 L140.86565,-62.740055 L140.98573,-62.68422 L141.10583,-62.628548 L141.22592,-62.573044 L141.34601,-62.517704 L141.4661,-62.462524 L141.5862,-62.40751 L141.70628,-62.352654 L141.82637,-62.29796 L141.94646,-62.243423 L142.06654,-62.18905 L142.18665,-62.13483 L142.30673,-62.080772 L142.42682,-62.026867 L142.5469,-61.973118 L142.667,-61.919525 L142.7871,-61.86608 L142.90718,-61.812794 L143.02727,-61.75966 L143.14735,-61.706673 L143.26746,-61.65384 L143.38754,-61.60116 L143.50763,-61.548622 L143.62772,-61.496235 L143.74782,-61.443993 L143.8679,-61.3919 L143.98799,-61.339954 L144.10808,-61.28815 L144.22816,-61.236492 L144.34827,-61.18498 L144.46835,-61.133606 L144.58844,-61.08238 L144.70853,-61.031292 L144.82863,-60.980343 L144.94872,-60.929535 L145.0688,-60.87887 L145.18889,-60.82834 L145.30898,-60.777946 L145.42908,-60.72769 L145.54916,-60.677574 L145.66925,-60.62759 L145.78934,-60.577744 L145.90944,-60.52803 L146.02953,-60.47845 L146.14961,-60.429005 L146.2697,-60.379692 L146.38979,-60.33051 L146.50989,-60.28146 L146.62997,-60.23254 L146.75006,-60.18375 L146.87015,-60.135086 L146.99025,-60.086555 L147.11034,-60.03815 L147.23042,-59.989872 L147.35051,-59.941723 L147.4706,-59.893696 L147.5907,-59.8458 L147.71078,-59.798023 L147.83087,-59.750374 L147.95096,-59.702847 L148.07106,-59.655445 L148.19115,-59.608162 L148.31123,-59.561005 L148.43132,-59.513966 L148.5514,-59.46705 L148.67151,-59.420254 L148.7916,-59.373573 L148.91168,-59.327015 L149.03177,-59.28058 L149.15187,-59.234257 L149.27196,-59.18805 L149.39204,-59.141964 L149.51213,-59.095993 L149.63222,-59.050137 L149.75232,-59.004395 L149.8724,-58.95877 L149.9925,-58.913258 L150.11258,-58.86786 L150.23268,-58.822575 L150.35277,-58.7774 L150.47285,-58.73234 L150.59294,-58.687393 L150.71303,-58.642555 L150.83313,-58.597828 L150.95322,-58.55321 L151.0733,-58.508705 L151.19339,-58.464306 L151.31349,-58.420013 L151.43358,-58.37583 L151.55367,-58.331757 L151.67375,-58.287792 L151.79384,-58.24393 L151.91394,-58.200176 L152.03403,-58.156525 L152.15411,-58.112984 L152.2742,-58.069542 L152.3943,-58.026207 L152.51439,-57.982975 L152.63448,-57.93985 L152.75456,-57.896824 L152.87465,-57.8539 L152.99475,-57.81108 L153.11484,-57.76836 L153.23492,-57.725742 L153.35501,-57.683228 L153.47511,-57.64081 L153.5952,-57.59849 L153.71529,-57.556274 L153.83537,-57.514156 L153.95546,-57.472134 L154.07556,-57.430214 L154.19565,-57.38839 L154.31573,-57.34666 L154.43582,-57.30503 L154.55592,-57.263496 L154.67601,-57.222057 L154.7961,-57.180714 L154.91618,-57.139465 L155.03627,-57.098312 L155.15637,-57.057255 L155.27646,-57.016293 L155.39655,-56.97542 L155.51663,-56.934643 L155.63673,-56.89396 L155.75682,-56.853367 L155.8769,-56.812866 L155.997,-56.772457 L156.11708,-56.73214 L156.23718,-56.691914 L156.35727,-56.65178 L156.47736,-56.611732 L156.59744,-56.571777 L156.71754,-56.53191 L156.83763,-56.49213 L156.95772,-56.452442 L157.0778,-56.41284 L157.19789,-56.37333 L157.318,-56.333904 L157.43808,-56.294567 L157.55817,-56.255314 L157.67825,-56.216152 L157.79836,-56.177074 L157.91844,-56.13808 L158.03853,-56.099174 L158.15862,-56.060352 L158.2787,-56.021614 L158.3988,-55.982964 L158.51889,-55.944393 L158.63898,-55.90591 L158.75906,-55.867508 L158.87917,-55.82919 L158.99925,-55.790955 L159.11934,-55.752804 L159.23943,-55.714733 L159.35951,-55.676743 L159.47961,-55.638836 L159.5997,-55.601013 L159.71979,-55.563267 L159.83987,-55.5256 L159.95998,-55.488018 L160.08006,-55.450512 L160.20015,-55.41309 L160.32024,-55.375744 L160.44032,-55.338478 L160.56042,-55.30129 L160.68051,-55.26418 L160.8006,-55.22715 L160.92068,-55.190197 L161.04079,-55.15332 L161.16087,-55.11652 L161.28096,-55.0798 L161.40105,-55.043156 L161.52113,-55.006584 L161.64124,-54.970093 L161.76132,-54.933678 L161.88141,-54.897335 L162.0015,-54.86107 L162.1216,-54.824875 L162.24168,-54.78876 L162.36177,-54.752716 L162.48186,-54.716747 L162.60194,-54.680855 L162.72205,-54.64503 L162.84213,-54.609283 L162.96222,-54.57361 L163.0823,-54.538006 L163.20241,-54.502476 L163.3225,-54.46702 L163.44258,-54.431633 L163.56267,-54.39632 L163.68275,-54.361076 L163.80286,-54.325905 L163.92294,-54.290802 L164.04303,-54.25577 L164.16312,-54.220814 L164.28322,-54.185925 L164.4033,-54.151104 L164.52339,-54.116352 L164.64348,-54.08167 L164.76357,-54.04706 L164.88367,-54.012516 L165.00375,-53.97804 L165.12384,-53.943634 L165.24393,-53.909294 L165.36403,-53.875023 L165.48412,-53.84082 L165.6042,-53.806683 L165.72429,-53.772614 L165.84439,-53.738613 L165.96448,-53.704678 L166.08456,-53.670807 L166.20465,-53.637005 L166.32474,-53.603268 L166.44484,-53.569595 L166.56493,-53.53599 L166.68501,-53.50245 L166.8051,-53.468975 L166.9252,-53.435562 L167.04529,-53.402218 L167.16537,-53.368935 L167.28546,-53.335716 L167.40555,-53.302563 L167.52565,-53.26947 L167.64574,-53.236446 L167.76582,-53.20348 L167.88591,-53.170578 L168.00601,-53.13774 L168.1261,-53.104965 L168.24619,-53.072254 L168.36627,-53.0396 L168.48636,-53.00701 L168.60646,-52.974483 L168.72655,-52.942017 L168.84663,-52.909615 L168.96672,-52.87727 L169.08682,-52.844986 L169.20691,-52.812763 L169.327,-52.7806 L169.44708,-52.7485 L169.56717,-52.716457 L169.68727,-52.684475 L169.80736,-52.652554 L169.92744,-52.620693 L170.04753,-52.588886 L170.16763,-52.557144 L170.28772,-52.52546 L170.4078,-52.49383 L170.5279,-52.46226 L170.64798,-52.43075 L170.76808,-52.3993 L170.88817,-52.367905 L171.00826,-52.336567 L171.12834,-52.30529 L171.24844,-52.274067 L171.36853,-52.2429 L171.48862,-52.211792 L171.6087,-52.18074 L171.72879,-52.149746 L171.84889,-52.11881 L171.96898,-52.087925 L172.08907,-52.057102 L172.20915,-52.02633 L172.32925,-51.995617 L172.44934,-51.964954 L172.56943,-51.934353 L172.68951,-51.9038 L172.8096,-51.87331 L172.9297,-51.84287 L173.04979,-51.812485 L173.16988,-51.782154 L173.28996,-51.751877 L173.41006,-51.721657 L173.53015,-51.691486 L173.65024,-51.661373 L173.77032,-51.63131 L173.89041,-51.601303 L174.01051,-51.57135 L174.1306,-51.541447 L174.25069,-51.5116 L174.37077,-51.481804 L174.49088,-51.45206 L174.61096,-51.422367 L174.73105,-51.392727 L174.85114,-51.36314 L174.97122,-51.333607 L175.09132,-51.304123 L175.21141,-51.274693 L175.3315,-51.24531 L175.45158,-51.21598 L175.57169,-51.186703 L175.69177,-51.157475 L175.81186,-51.1283 L175.93195,-51.09917 L176.05203,-51.070095 L176.17213,-51.041073 L176.29222,-51.012096 L176.41231,-50.98317 L176.5324,-50.954296 L176.6525,-50.92547 L176.77258,-50.896694 L176.89267,-50.867966 L177.01276,-50.839287 L177.13284,-50.810658 L177.25294,-50.782078 L177.37303,-50.753548 L177.49312,-50.725063 L177.6132,-50.696632 L177.7333,-50.668243 L177.8534,-50.639908 L177.97348,-50.611618 L178.09357,-50.583378 L178.21365,-50.555183 L178.33376,-50.527035 L178.45384,-50.498936 L178.57393,-50.470886 L178.69402,-50.44288 L178.81412,-50.414925 L178.9342,-50.387012 L179.05429,-50.35915 L179.17438,-50.33133 L179.29446,-50.30356 L179.41457,-50.275837 L179.53465,-50.248158 L179.65474,-50.220524 L179.77483,-50.19294 L179.89493,-50.165398 L180.01501,-50.1379 L180.1351,-50.110455 L180.25519,-50.08305 L180.37527,-50.05569 L180.49538,-50.028378 L180.61546,-50.001106 L180.73555,-49.973885 L180.85564,-49.946705 L180.97574,-49.91957 L181.09583,-49.89248 L181.21591,-49.865437 L181.336,-49.838432 L181.45609,-49.811478 L181.57619,-49.78456 L181.69627,-49.757694 L181.81636,-49.730865 L181.93645,-49.704082 L182.05655,-49.677345 L182.17664,-49.65065 L182.29672,-49.623997 L182.41681,-49.59739 L182.5369,-49.570824 L182.657,-49.5443 L182.77708,-49.51782 L182.89717,-49.49138 L183.01726,-49.464985 L183.13736,-49.43863 L183.25745,-49.41232 L183.37753,-49.38605 L183.49762,-49.35982 L183.6177,-49.333637 L183.73781,-49.307495 L183.8579,-49.28139 L183.97798,-49.255333 L184.09807,-49.229313 L184.21817,-49.203335 L184.33826,-49.1774 L184.45834,-49.151505 L184.57843,-49.125652 L184.69852,-49.09984 L184.81862,-49.074066 L184.9387,-49.048332 L185.05879,-49.02264 L185.17888,-48.99699 L185.29898,-48.97138 L185.41907,-48.94581 L185.53915,-48.920277 L185.65924,-48.894787 L185.77933,-48.869335 L185.89943,-48.843925 L186.01952,-48.818554 L186.1396,-48.79322 L186.25969,-48.76793 L186.37979,-48.742676 L186.49988,-48.71746 L186.61996,-48.692287 L186.74005,-48.66715 L186.86014,-48.64205 L186.98024,-48.616993 L187.10033,-48.591976 L187.22041,-48.566994 L187.3405,-48.54205 L187.4606,-48.517147 L187.58069,-48.492283 L187.70078,-48.467453 L187.82086,-48.442665 L187.94095,-48.41791 L188.06105,-48.393196 L188.18114,-48.368523 L188.30122,-48.343884 L188.42131,-48.319283 L188.54141,-48.29472 L188.6615,-48.27019 L188.78159,-48.245705 L188.90167,-48.221252 L189.02176,-48.196835 L189.14186,-48.17246 L189.26195,-48.148117 L189.38203,-48.123814 L189.50212,-48.099545 L189.62222,-48.075314 L189.74231,-48.05112 L189.8624,-48.026962 L189.98248,-48.002842 L190.10257,-47.978756 L190.22267,-47.954704 L190.34276,-47.93069 L190.46284,-47.906715 L190.58293,-47.882774 L190.70303,-47.858868 L190.82312,-47.835 L190.9432,-47.81116 L191.0633,-47.787365 L191.18338,-47.7636 L191.30348,-47.739872 L191.42357,-47.71618 L191.54366,-47.69252 L191.66374,-47.668896 L191.78384,-47.645306 L191.90393,-47.621754 L192.02402,-47.598236 L192.1441,-47.57475 L192.26419,-47.5513 L192.3843,-47.527885 L192.50438,-47.504505 L192.62447,-47.48116 L192.74455,-47.457848 L192.86465,-47.434566 L192.98474,-47.411324 L193.10483,-47.388115 L193.22491,-47.364937 L193.345,-47.341797 L193.4651,-47.318687 L193.58519,-47.295612 L193.70528,-47.27257 L193.82536,-47.24956 L193.94547,-47.22659 L194.06555,-47.203648 L194.18564,-47.180737 L194.30573,-47.157864 L194.42581,-47.13502 L194.54591,-47.112213 L194.666,-47.089436 L194.78609,-47.066692 L194.90617,-47.04398 L195.02628,-47.021305 L195.14636,-46.998657 L195.26645,-46.976044 L195.38654,-46.953465 L195.50664,-46.930916 L195.62672,-46.9084 L195.74681,-46.885918 L195.8669,-46.863464 L195.98698,-46.841045 L196.10709,-46.818657 L196.22717,-46.7963 L196.34726,-46.773975 L196.46735,-46.751682 L196.58745,-46.729424 L196.70753,-46.707195 L196.82762,-46.684998 L196.94771,-46.66283 L197.0678,-46.640694 L197.1879,-46.61859 L197.30798,-46.59652 L197.42807,-46.57448 L197.54816,-46.552467 L197.66826,-46.530487 L197.78835,-46.508537 L197.90843,-46.486618 L198.02852,-46.464733 L198.1486,-46.442875 L198.2687,-46.42105 L198.3888,-46.399254 L198.50888,-46.377487 L198.62897,-46.355755 L198.74907,-46.33405 L198.86916,-46.312374 L198.98924,-46.290733 L199.10933,-46.26912 L199.22942,-46.247536 L199.34952,-46.22598 L199.4696,-46.204456 L199.58969,-46.18296 L199.70978,-46.1615 L199.82988,-46.14006 L199.94997,-46.118656 L200.07005,-46.097282 L200.19014,-46.075935 L200.31023,-46.05462 L200.43033,-46.03333 L200.55042,-46.012074 L200.6705,-45.990845 L200.79059,-45.969643 L200.91069,-45.94847 L201.03078,-45.92733 L201.15086,-45.906216 L201.27095,-45.88513 L201.39104,-45.86408 L201.51114,-45.843052 L201.63123,-45.822052 L201.75131,-45.801083 L201.8714,-45.780144 L201.9915,-45.75923 L202.11159,-45.738346 L202.23167,-45.71749 L202.35176,-45.696663 L202.47185,-45.675865 L202.59195,-45.655094 L202.71204,-45.63435 L202.83212,-45.613636 L202.95221,-45.59295 L203.07231,-45.57229 L203.1924,-45.55166 L203.31248,-45.53105 L203.43257,-45.51048 L203.55266,-45.48993 L203.67276,-45.46941 L203.79285,-45.448914 L203.91293,-45.42845 L204.03302,-45.408012 L204.15312,-45.3876 L204.27321,-45.367218 L204.3933,-45.34686 L204.51338,-45.32653 L204.63347,-45.30623 L204.75357,-45.285954 L204.87366,-45.265705 L204.99374,-45.245483 L205.11383,-45.22529 L205.23393,-45.205124 L205.35402,-45.184982 L205.4741,-45.164867 L205.5942,-45.14478 L205.71428,-45.124718 L205.83438,-45.104683 L205.95447,-45.084675 L206.07455,-45.064693 L206.19464,-45.04474 L206.31474,-45.02481 L206.43483,-45.004906 L206.55492,-44.98503 L206.675,-44.96518 L206.79509,-44.945354 L206.91519,-44.925556 L207.03528,-44.905785 L207.15536,-44.886036 L207.27545,-44.866318 L207.39555,-44.846622 L207.51564,-44.82695 L207.63573,-44.80731 L207.75581,-44.78769 L207.8759,-44.768097 L207.996,-44.74853 L208.11609,-44.72899 L208.23618,-44.709473 L208.35626,-44.68998 L208.47636,-44.670517 L208.59645,-44.651073 L208.71654,-44.63166 L208.83662,-44.61227 L208.95671,-44.592903 L209.07681,-44.573566 L209.1969,-44.55425 L209.31699,-44.534958 L209.43707,-44.515694 L209.55717,-44.496452 L209.67726,-44.477238 L209.79735,-44.458046 L209.91743,-44.43888 L210.03752,-44.41974 L210.15762,-44.40062 L210.27771,-44.381527 L210.3978,-44.36246 L210.51788,-44.343414 L210.63799,-44.324398 L210.75807,-44.3054 L210.87816,-44.28643 L210.99825,-44.267483 L211.11833,-44.24856 L211.23843,-44.22966 L211.35852,-44.21079 L211.4786,-44.191936 L211.5987,-44.17311 L211.7188,-44.15431 L211.83888,-44.13553 L211.95897,-44.11677 L212.07906,-44.09804 L212.19914,-44.079334 L212.31924,-44.06065 L212.43933,-44.04199 L212.55942,-44.023354 L212.6795,-44.004738 L212.7996,-43.98615 L212.9197,-43.967583 L213.03978,-43.94904 L213.15987,-43.93052 L213.27995,-43.912025 L213.40005,-43.89355 L213.52014,-43.8751 L213.64023,-43.856674 L213.76031,-43.83827 L213.88042,-43.81989 L214.0005,-43.801533 L214.12059,-43.783195 L214.24068,-43.764885 L214.36076,-43.746593 L214.48087,-43.72833 L214.60095,-43.710083 L214.72104,-43.691864 L214.84113,-43.673664 L214.96123,-43.65549 L215.08131,-43.637337 L215.2014,-43.619205 L215.32149,-43.601097 L215.44157,-43.58301 L215.56168,-43.56495 L215.68176,-43.54691 L215.80185,-43.528893 L215.92194,-43.510895 L216.04204,-43.49292 L216.16212,-43.474968 L216.28221,-43.45704 L216.4023,-43.439133 L216.52238,-43.421246 L216.64249,-43.40338 L216.76257,-43.38554 L216.88266,-43.36772 L217.00275,-43.349926 L217.12285,-43.33215 L217.24294,-43.314396 L217.36302,-43.29666 L217.48311,-43.278954 L217.6032,-43.261265 L217.7233,-43.243595 L217.84338,-43.22595 L217.96347,-43.208324 L218.08356,-43.190723 L218.20366,-43.17314 L218.32375,-43.155582 L218.44383,-43.138042 L218.56392,-43.12053 L218.684,-43.10303 L218.80411,-43.085556 L218.9242,-43.068104 L219.04428,-43.05067 L219.16437,-43.03326 L219.28447,-43.015873 L219.40456,-42.9985 L219.52464,-42.981155 L219.64473,-42.96383 L219.76482,-42.94652 L219.88492,-42.929237 L220.005,-42.911972 L220.12509,-42.89473 L220.24518,-42.877506 L220.36528,-42.860306 L220.48537,-42.843124 L220.60545,-42.825966 L220.72554,-42.808826 L220.84563,-42.791706 L220.96573,-42.77461 L221.08582,-42.75753 L221.2059,-42.74047 L221.32599,-42.723434 L221.44609,-42.706417 L221.56618,-42.689423 L221.68626,-42.672447 L221.80635,-42.65549 L221.92644,-42.638554 L222.04654,-42.62164 L222.16663,-42.604744 L222.28671,-42.587868 L222.4068,-42.571014 L222.5269,-42.55418 L222.64699,-42.537365 L222.76707,-42.52057 L222.88716,-42.503796 L223.00725,-42.487038 L223.12735,-42.470303 L223.24744,-42.45359 L223.36752,-42.436893 L223.48761,-42.42022 L223.60771,-42.40356 L223.7278,-42.386925 L223.84789,-42.370308 L223.96797,-42.35371 L224.08806,-42.337135 L224.20816,-42.320576 L224.32825,-42.30404 L224.44833,-42.28752 L224.56842,-42.27102 L224.68852,-42.25454 L224.80861,-42.23808 L224.9287,-42.221638 L225.04878,-42.205215 L225.16888,-42.188812 L225.28897,-42.17243 L225.40906,-42.156067 L225.52914,-42.13972 L225.64923,-42.123394 L225.76933,-42.107086 L225.88942,-42.0908 L226.0095,-42.07453 L226.1296,-42.05828 L226.2497,-42.04205 L226.36978,-42.025837 L226.48987,-42.009647 L226.60995,-41.993473 L226.73004,-41.977318 L226.85014,-41.961178 L226.97023,-41.94506 L227.09032,-41.928963 L227.2104,-41.912884 L227.3305,-41.89682 L227.45059,-41.88078 L227.57068,-41.864754 L227.69077,-41.848747 L227.81085,-41.83276 L227.93095,-41.81679 L228.05104,-41.800842 L228.17113,-41.78491 L228.29121,-41.768997 L228.41132,-41.7531 L228.5314,-41.737225 L228.65149,-41.721367 L228.77158,-41.705524 L228.89166,-41.689705 L229.01176,-41.6739 L229.13185,-41.658115 L229.25194,-41.642345 L229.37202,-41.6266 L229.49213,-41.610867 L229.61221,-41.595154 L229.7323,-41.579456 L229.85239,-41.56378 L229.97247,-41.548122 L230.09258,-41.532482 L230.21266,-41.516857 L230.33275,-41.50125 L230.45284,-41.485664 L230.57294,-41.470093 L230.69302,-41.454544 L230.81311,-41.439007 L230.9332,-41.423492 L231.05328,-41.407993 L231.17339,-41.392513 L231.29347,-41.37705 L231.41356,-41.361603 L231.53365,-41.346172 L231.65375,-41.33076 L231.77383,-41.31537 L231.89392,-41.299995 L232.014,-41.284634 L232.1341,-41.269295 L232.2542,-41.25397 L232.37428,-41.238663 L232.49437,-41.223377 L232.61446,-41.208103 L232.73456,-41.19285 L232.85464,-41.177612 L232.97473,-41.16239 L233.09482,-41.14719 L233.2149,-41.132004 L233.335,-41.116837 L233.4551,-41.101685 L233.57518,-41.08655 L233.69527,-41.071434 L233.81537,-41.056335 L233.93546,-41.041252 L234.05554,-41.026184 L234.17563,-41.011135 L234.29572,-40.9961 L234.41582,-40.981087 L234.5359,-40.966087 L234.65599,-40.951107 L234.77608,-40.936142 L234.89618,-40.921196 L235.01627,-40.90626 L235.13635,-40.89135 L235.25644,-40.87645 L235.37653,-40.86157 L235.49663,-40.846703 L235.61671,-40.831856 L235.7368,-40.817024 L235.85689,-40.802208 L235.97699,-40.78741 L236.09708,-40.77263 L236.21716,-40.757862 L236.33725,-40.743114 L236.45734,-40.728382 L236.57744,-40.713665 L236.69753,-40.698967 L236.81761,-40.684284 L236.9377,-40.669617 L237.0578,-40.654964 L237.17789,-40.64033 L237.29797,-40.625713 L237.41806,-40.61111 L237.53815,-40.596523 L237.65825,-40.581955 L237.77834,-40.567398 L237.89842,-40.552864 L238.01851,-40.53834 L238.13861,-40.523834 L238.2587,-40.509346 L238.37878,-40.494873 L238.49887,-40.480415 L238.61896,-40.465973 L238.73906,-40.45155 L238.85915,-40.437138 L238.97923,-40.422745 L239.09932,-40.408367 L239.21942,-40.394005 L239.33951,-40.379658 L239.4596,-40.365326 L239.57968,-40.351013 L239.69977,-40.33671 L239.81987,-40.32243 L239.93996,-40.308163 L240.06004,-40.29391 L240.18013,-40.279675 L240.30023,-40.265453 L240.42032,-40.251247 L240.5404,-40.237057 L240.66049,-40.222885 L240.78058,-40.208725 L240.90068,-40.194584 L241.02077,-40.180454 L241.14085,-40.166344 L241.26094,-40.152245 L241.38104,-40.138165 L241.50113,-40.1241 L241.62122,-40.110046 L241.7413,-40.096012 L241.86139,-40.081993 L241.98149,-40.06799 L242.10158,-40.053997 L242.22166,-40.040024 L242.34175,-40.026066 L242.46185,-40.01212 L242.58194,-39.99819 L242.70203,-39.98428 L242.82211,-39.97038 L242.9422,-39.956497 L243.0623,-39.942627 L243.18239,-39.928776 L243.30247,-39.914936 L243.42256,-39.90111 L243.54266,-39.887306 L243.66275,-39.873512 L243.78284,-39.859734 L243.90292,-39.84597 L244.02301,-39.83222 L244.14311,-39.818485 L244.2632,-39.804768 L244.38329,-39.79106 L244.50337,-39.777374 L244.62347,-39.7637 L244.74356,-39.75004 L244.86365,-39.736393 L244.98373,-39.722763 L245.10382,-39.70915 L245.22392,-39.695545 L245.34401,-39.68196 L245.4641,-39.66839 L245.58418,-39.65483 L245.70428,-39.64129 L245.82437,-39.627758 L245.94446,-39.614246 L246.06454,-39.600746 L246.18463,-39.58726 L246.30473,-39.57379 L246.42482,-39.560337 L246.5449,-39.546894 L246.665,-39.53347 L246.7851,-39.520058 L246.90518,-39.506657 L247.02527,-39.493275 L247.14536,-39.479904 L247.26544,-39.46655 L247.38554,-39.45321 L247.50563,-39.43988 L247.62572,-39.42657 L247.7458,-39.41327 L247.8659,-39.399986 L247.986,-39.38672 L248.10608,-39.373463 L248.22617,-39.360218 L248.34625,-39.346992 L248.46635,-39.33378 L248.58644,-39.32058 L248.70653,-39.307396 L248.82661,-39.294224 L248.94672,-39.281067 L249.0668,-39.26792 L249.18689,-39.254795 L249.30698,-39.241676 L249.42706,-39.228577 L249.54716,-39.21549 L249.66725,-39.202415 L249.78734,-39.189354 L249.90742,-39.17631 L250.02753,-39.163277 L250.14761,-39.15026 L250.2677,-39.137257 L250.38779,-39.124264 L250.50787,-39.111286 L250.62798,-39.098324 L250.74806,-39.085373 L250.86815,-39.072437 L250.98824,-39.059517 L251.10834,-39.046608 L251.22842,-39.033714 L251.34851,-39.020832 L251.4686,-39.007965 L251.58868,-38.99511 L251.70879,-38.98227 L251.82887,-38.969444 L251.94896,-38.95663 L252.06905,-38.94383 L252.18915,-38.93104 L252.30923,-38.91827 L252.42932,-38.90551 L252.54941,-38.892765 L252.6695,-38.88003 L252.7896,-38.867313 L252.90968,-38.854607 L253.02977,-38.841915 L253.14986,-38.829235 L253.26996,-38.81657 L253.39005,-38.803917 L253.51013,-38.791275 L253.63022,-38.77865 L253.7503,-38.766037 L253.8704,-38.753437 L253.9905,-38.740852 L254.11058,-38.72828 L254.23067,-38.715717 L254.35077,-38.70317 L254.47086,-38.690636 L254.59094,-38.678116 L254.71103,-38.665607 L254.83112,-38.653114 L254.95122,-38.640633 L255.0713,-38.628162 L255.19139,-38.615707 L255.31148,-38.603264 L255.43158,-38.590836 L255.55167,-38.57842 L255.67175,-38.566017 L255.79184,-38.553627 L255.91194,-38.54125 L256.032,-38.528885 L256.1521,-38.516533 L256.27222,-38.504192 L256.3923,-38.491867 L256.5124,-38.479553 L256.63248,-38.46725 L256.75256,-38.454964 L256.87265,-38.442688 L256.99274,-38.430428 L257.11282,-38.41818 L257.2329,-38.40594 L257.35303,-38.393715 L257.4731,-38.381504 L257.5932,-38.369305 L257.7133,-38.35712 L257.83337,-38.344948 L257.95346,-38.332787 L258.07355,-38.320637 L258.19363,-38.308502 L258.31372,-38.29638 L258.43384,-38.284267 L258.55392,-38.27217 L258.674,-38.260086 L258.7941,-38.248013 L258.91418,-38.23595 L259.03427,-38.223904 L259.15436,-38.21187 L259.27444,-38.199844 L259.39453,-38.187836 L259.51465,-38.17584 L259.63474,-38.163853 L259.75482,-38.15188 L259.8749,-38.139915 L259.995,-38.127968 L260.11508,-38.11603 L260.23517,-38.104107 L260.35526,-38.092197 L260.47534,-38.080296 L260.59546,-38.06841 L260.71555,-38.056534 L260.83563,-38.04467 L260.95572,-38.03282 L261.0758,-38.02098 L261.1959,-38.009155 L261.31598,-37.99734 L261.43607,-37.985542 L261.55615,-37.97375 L261.67627,-37.961975 L261.79636,-37.950207 L261.91644,-37.938454 L262.03653,-37.926712 L262.15662,-37.914986 L262.2767,-37.903267 L262.3968,-37.891563 L262.51688,-37.879868 L262.63696,-37.868187 L262.75708,-37.856518 L262.87717,-37.84486 L262.99725,-37.833214 L263.11734,-37.821583 L263.23743,-37.80996 L263.3575,-37.79835 L263.4776,-37.786755 L263.5977,-37.77517 L263.71777,-37.763596 L263.8379,-37.752033 L263.95798,-37.740482 L264.07806,-37.728943 L264.19815,-37.71742 L264.31824,-37.705902 L264.43832,-37.6944 L264.5584,-37.682907 L264.6785,-37.67143 L264.79858,-37.65996 L264.9187,-37.648506 L265.0388,-37.637062 L265.15887,-37.625626 L265.27896,-37.61421 L265.39905,-37.6028 L265.51913,-37.5914 L265.63922,-37.580013 L265.7593,-37.568638 L265.8794,-37.557278 L265.9995,-37.545925 L266.1196,-37.534584 L266.2397,-37.52326 L266.35977,-37.51194 L266.47986,-37.500633 L266.59995,-37.48934 L266.72003,-37.478058 L266.84012,-37.46679 L266.9602,-37.45553 L267.08032,-37.444283 L267.2004,-37.433044 L267.3205,-37.42182 L267.44058,-37.410606 L267.56067,-37.399406 L267.68076,-37.388214 L267.80084,-37.377033 L267.92093,-37.365868 L268.04102,-37.35471 L268.16113,-37.343563 L268.28122,-37.33243 L268.4013,-37.32131 L268.5214,-37.310196 L268.64148,-37.299095 L268.76157,-37.288006 L268.88165,-37.27693 L269.00174,-37.265865 L269.12183,-37.254807 L269.24194,-37.243763 L269.36203,-37.23273 L269.48212,-37.22171 L269.6022,-37.2107 L269.7223,-37.1997 L269.84238,-37.188713 L269.96246,-37.177734 L270.08255,-37.16677 L270.20267,-37.155815 L270.32275,-37.14487 L270.44284,-37.133938 L270.56293,-37.123016 L270.683,-37.112106 L270.8031,-37.101208 L270.9232,-37.090317 L271.04327,-37.07944 L271.16336,-37.068573 L271.28348,-37.057716 L271.40356,-37.046875 L271.52365,-37.03604 L271.64374,-37.02522 L271.76382,-37.014404 L271.8839,-37.003605 L272.004,-36.992813 L272.12408,-36.982037 L272.24417,-36.971268 L272.3643,-36.96051 L272.48438,-36.949764 L272.60446,-36.93903 L272.72455,-36.928303 L272.84464,-36.917587 L272.96472,-36.906887 L273.0848,-36.896194 L273.2049,-36.885513 L273.32498,-36.87484 L273.4451,-36.86418 L273.5652,-36.85353 L273.68527,-36.84289 L273.80536,-36.832264 L273.92545,-36.821648 L274.04553,-36.81104 L274.16562,-36.800446 L274.2857,-36.78986 L274.4058,-36.779285 L274.5259,-36.768723 L274.646,-36.758167 L274.76608,-36.747623 L274.88617,-36.73709 L275.00626,-36.72657 L275.12634,-36.71606 L275.24643,-36.70556 L275.36652,-36.69507 L275.4866,-36.68459 L275.60672,-36.67412 L275.7268,-36.663662 L275.8469,-36.653217 L275.96698,-36.64278 L276.08707,-36.63235 L276.20715,-36.621937 L276.32724,-36.61153 L276.44733,-36.601135 L276.5674,-36.590748 L276.68753,-36.580376 L276.80762,-36.57001 L276.9277,-36.559658 L277.0478,-36.549313 L277.16788,-36.53898 L277.28796,-36.528656 L277.40805,-36.518345 L277.52814,-36.50804 L277.64822,-36.497753 L277.76834,-36.48747 L277.88843,-36.4772 L278.0085,-36.466938 L278.1286,-36.456688 L278.2487,-36.44645 L278.36877,-36.43622 L278.48886,-36.426 L278.60895,-36.415787 L278.72903,-36.40559 L278.84915,-36.3954 L278.96924,-36.38522 L279.08932,-36.375053 L279.2094,-36.364895 L279.3295,-36.354748 L279.4496,-36.34461 L279.56967,-36.33448 L279.68976,-36.324364 L279.80984,-36.314255 L279.92996,-36.304157 L280.05005,-36.294067 L280.17014,-36.283993 L280.29022,-36.273926 L280.4103,-36.263866 L280.5304,-36.25382 L280.65048,-36.243782 L280.77057,-36.233757 L280.89066,-36.22374 L281.01077,-36.21373 L281.13086,-36.203735 L281.25095,-36.193745 L281.37103,-36.18377 L281.49112,-36.1738 L281.6112,-36.163845 L281.7313,-36.153896 L281.85138,-36.14396 L281.97147,-36.134033 L282.09158,-36.124115 L282.21167,-36.11421 L282.33176,-36.10431 L282.45184,-36.09442 L282.57193,-36.084545 L282.69202,-36.074677 L282.8121,-36.064816 L282.9322,-36.05497 L283.05228,-36.04513 L283.1724,-36.0353 L283.29248,-36.025482 L283.41257,-36.015675 L283.53265,-36.005875 L283.65274,-35.996082 L283.77283,-35.986305 L283.8929,-35.976536 L284.013,-35.966774 L284.1331,-35.957024 L284.2532,-35.94728 L284.3733,-35.93755 L284.49338,-35.92783 L284.61346,-35.918118 L284.73355,-35.908417 L284.85364,-35.898724 L284.97372,-35.889038 L285.0938,-35.879368 L285.2139,-35.8697 L285.334,-35.86005 L285.4541,-35.850407 L285.5742,-35.84077 L285.69427,-35.831146 L285.81436,-35.82153 L285.93445,-35.811924 L286.05453,-35.802326 L286.17462,-35.79274 L286.2947,-35.783165 L286.41483,-35.773594 L286.5349,-35.764038 L286.655,-35.75449 L286.7751,-35.74495 L286.89517,-35.73542 L287.01526,-35.7259 L287.13535,-35.71639 L287.25543,-35.706886 L287.37552,-35.697395 L287.49564,-35.687916 L287.61572,-35.67844 L287.7358,-35.66898 L287.8559,-35.659523 L287.97598,-35.650078 L288.09607,-35.640644 L288.21616,-35.631218 L288.33624,-35.621803 L288.45633,-35.612396 L288.57645,-35.602997 L288.69653,-35.59361 L288.81662,-35.58423 L288.9367,-35.57486 L289.0568,-35.565502 L289.17688,-35.55615 L289.29697,-35.546806 L289.41705,-35.537476 L289.53714,-35.528152 L289.65726,-35.518837 L289.77734,-35.509533 L289.89743,-35.50024 L290.01752,-35.49095 L290.1376,-35.481674 L290.2577,-35.47241 L290.37778,-35.46315 L290.49786,-35.4539 L290.61795,-35.44466 L290.73807,-35.43543 L290.85815,-35.42621 L290.97824,-35.416996 L291.09833,-35.407795 L291.2184,-35.398598 L291.3385,-35.389416 L291.4586,-35.380238 L291.57867,-35.37107 L291.69876,-35.361916 L291.81888,-35.352764 L291.93896,-35.343628 L292.05905,-35.334496 L292.17914,-35.325375 L292.29922,-35.316265 L292.4193,-35.30716 L292.5394,-35.298065 L292.6595,-35.288982 L292.77957,-35.279907 L292.8997,-35.27084 L293.01978,-35.26178 L293.13986,-35.25273 L293.25995,-35.243694 L293.38004,-35.23466 L293.50012,-35.22564 L293.6202,-35.21663 L293.7403,-35.207623 L293.86038,-35.198627 L293.9805,-35.189644 L294.1006,-35.180668 L294.22067,-35.1717 L294.34076,-35.16274 L294.46085,-35.15379 L294.58093,-35.144848 L294.70102,-35.135914 L294.8211,-35.12699 L294.9412,-35.118076 L295.0613,-35.109173 L295.1814,-35.100273 L295.30148,-35.091385 L295.42157,-35.082508 L295.54166,-35.073635 L295.66174,-35.064774 L295.78183,-35.055923 L295.90192,-35.047077 L296.022,-35.038242 L296.14212,-35.02942 L296.2622,-35.0206 L296.3823,-35.01179 L296.50238,-35.00299 L296.62247,-34.9942 L296.74255,-34.985416 L296.86264,-34.976643 L296.98273,-34.96788 L297.1028,-34.95912 L297.22293,-34.950375 L297.34302,-34.941635 L297.4631,-34.932907 L297.5832,-34.924187 L297.70328,-34.915474 L297.82336,-34.90677 L297.94345,-34.898075 L298.06354,-34.889385 L298.18362,-34.88071 L298.30374,-34.87204 L298.42383,-34.86338 L298.5439,-34.854725 L298.664,-34.846085 L298.7841,-34.83745 L298.90417,-34.828823 L299.02426,-34.820206 L299.14435,-34.811596 L299.26443,-34.802994 L299.38455,-34.794403 L299.50464,-34.78582 L299.62473,-34.777245 L299.7448,-34.76868 L299.8649,-34.76012 L299.985,-34.75157 L300.10507,-34.74303 L300.22516,-34.7345 L300.34525,-34.725975 L300.46536,-34.71746 L300.58545,-34.708954 L300.70554,-34.700455 L300.82562,-34.691967 L300.9457,-34.683483 L301.0658,-34.67501 L301.18588,-34.66655 L301.30597,-34.658092 L301.42606,-34.649643 L301.54617,-34.641205 L301.66626,-34.632774 L301.78635,-34.62435 L301.90643,-34.61594 L302.02652,-34.607533 L302.1466,-34.599136 L302.2667,-34.590748 L302.38678,-34.582367 L302.50687,-34.573997 L302.62698,-34.56563 L302.74707,-34.557278 L302.86716,-34.54893 L302.98724,-34.540592 L303.10733,-34.532265 L303.22742,-34.52394 L303.3475,-34.51563 L303.4676,-34.507324 L303.58768,-34.499027 L303.7078,-34.490738 L303.82788,-34.48246 L303.94797,-34.474186 L304.06805,-34.465923 L304.18814,-34.45767 L304.30823,-34.44942 L304.4283,-34.44118 L304.5484,-34.43295 L304.6685,-34.42473 L304.7886,-34.416515 L304.9087,-34.40831 L305.02878,-34.400112 L305.14886,-34.391922 L305.26895,-34.38374 L305.38904,-34.37557 L305.50912,-34.3674 L305.6292,-34.359245 L305.7493,-34.351097 L305.86942,-34.342957 L305.9895,-34.334824 L306.1096,-34.3267 L306.22968,-34.318584 L306.34976,-34.310474 L306.46985,-34.302376 L306.58994,-34.294285 L306.71002,-34.2862 L306.8301,-34.278126 L306.95023,-34.270058 L307.0703,-34.262 L307.1904,-34.25395 L307.3105,-34.245907 L307.43057,-34.23787 L307.55066,-34.229843 L307.67075,-34.221825 L307.79083,-34.213814 L307.91092,-34.20581 L308.03104,-34.197815 L308.15112,-34.18983 L308.2712,-34.18185 L308.3913,-34.17388 L308.51138,-34.165916 L308.63147,-34.157963 L308.75156,-34.150017 L308.87164,-34.14208 L308.99173,-34.134148 L309.11185,-34.126225 L309.23193,-34.11831 L309.35202,-34.110405 L309.4721,-34.102505 L309.5922,-34.094612 L309.71228,-34.08673 L309.83237,-34.078857 L309.95245,-34.070988 L310.07254,-34.06313 L310.19266,-34.05528 L310.31274,-34.047436 L310.43283,-34.0396 L310.55292,-34.031773 L310.673,-34.023952 L310.7931,-34.01614 L310.91318,-34.008335 L311.03326,-34.00054 L311.15335,-33.992752 L311.27347,-33.98497 L311.39355,-33.9772 L311.51364,-33.969437 L311.63373,-33.961678 L311.7538,-33.95393 L311.8739,-33.946186 L311.994,-33.938454 L312.11407,-33.93073 L312.23416,-33.92301 L312.35428,-33.915302 L312.47437,-33.9076 L312.59445,-33.899906 L312.71454,-33.89222 L312.83463,-33.88454 L312.9547,-33.87687 L313.0748,-33.869205 L313.1949,-33.86155 L313.31497,-33.8539 L313.4351,-33.84626 L313.55518,-33.838627 L313.67526,-33.831005 L313.79535,-33.823387 L313.91544,-33.815777 L314.03552,-33.808174 L314.1556,-33.800583 L314.2757,-33.792995 L314.39578,-33.785416 L314.5159,-33.777847 L314.636,-33.770283 L314.75607,-33.76273 L314.87616,-33.75518 L314.99625,-33.74764 L315.11633,-33.74011 L315.23642,-33.732582 L315.3565,-33.725067 L315.4766,-33.717556 L315.5967,-33.710052 L315.7168,-33.70256 L315.83688,-33.695072 L315.95697,-33.68759 L316.07706,-33.680122 L316.19714,-33.672657 L316.31723,-33.665203 L316.43732,-33.657753 L316.5574,-33.65031 L316.67752,-33.64288 L316.7976,-33.635452 L316.9177,-33.628033 L317.03778,-33.62062 L317.15787,-33.61322 L317.27795,-33.605824 L317.39804,-33.598434 L317.51813,-33.591053 L317.6382,-33.58368 L317.75833,-33.576313 L317.87842,-33.568954 L317.9985,-33.561604 L318.1186,-33.55426 L318.23868,-33.546925 L318.35876,-33.539597 L318.47885,-33.532276 L318.59894,-33.524963 L318.71902,-33.51766 L318.83914,-33.510357 L318.95923,-33.503067 L319.0793,-33.495785 L319.1994,-33.488506 L319.3195,-33.48124 L319.43958,-33.473976 L319.55966,-33.466724 L319.67975,-33.459476 L319.79984,-33.452236 L319.91995,-33.445007 L320.04004,-33.437782 L320.16013,-33.430565 L320.2802,-33.423355 L320.4003,-33.416153 L320.5204,-33.40896 L320.64047,-33.40177 L320.76056,-33.39459 L320.88065,-33.387417 L321.00076,-33.380253 L321.12085,-33.373093 L321.24094,-33.365944 L321.36102,-33.3588 L321.4811,-33.351665 L321.6012,-33.344536 L321.72128,-33.337414 L321.84137,-33.3303 L321.96146,-33.323193 L322.08157,-33.316093 L322.20166,-33.309002 L322.32175,-33.301918 L322.44183,-33.29484 L322.56192,-33.28777 L322.682,-33.28071 L322.8021,-33.27365 L322.92218,-33.2666 L323.04227,-33.25956 L323.16238,-33.25253 L323.28247,-33.245502 L323.40256,-33.23848 L323.52264,-33.23147 L323.64273,-33.224464 L323.76282,-33.21747 L323.8829,-33.210476 L324.003,-33.20349 L324.12308,-33.196518 L324.2432,-33.18955 L324.36328,-33.182587 L324.48337,-33.175632 L324.60345,-33.168682 L324.72354,-33.161743 L324.84363,-33.15481 L324.9637,-33.147884 L325.0838,-33.140965 L325.2039,-33.134056 L325.324,-33.12715 L325.4441,-33.120255 L325.56418,-33.113365 L325.68427,-33.10648 L325.80435,-33.099606 L325.92444,-33.092735 L326.04453,-33.085873 L326.1646,-33.07902 L326.2847,-33.072174 L326.40482,-33.065334 L326.5249,-33.0585 L326.645,-33.051674 L326.76508,-33.044853 L326.88516,-33.038044 L327.00525,-33.03124 L327.12534,-33.02444 L327.24542,-33.01765 L327.3655,-33.010868 L327.48563,-33.00409 L327.6057,-32.997322 L327.7258,-32.99056 L327.8459,-32.983803 L327.96597,-32.977055 L328.08606,-32.970314 L328.20615,-32.963577 L328.32623,-32.956852 L328.44632,-32.95013 L328.56644,-32.943417 L328.68652,-32.936714 L328.8066,-32.93001 L328.9267,-32.92332 L329.04678,-32.916637 L329.16687,-32.909958 L329.28696,-32.903286 L329.40704,-32.89662 L329.52713,-32.889965 L329.64725,-32.883316 L329.76733,-32.87667 L329.88742,-32.870033 L330.0075,-32.863407 L330.1276,-32.856785 L330.24768,-32.850166 L330.36777,-32.84356 L330.48785,-32.836956 L330.60797,-32.830364 L330.72806,-32.823776 L330.84814,-32.817196 L330.96823,-32.81062 L331.08832,-32.804054 L331.2084,-32.797493 L331.3285,-32.79094 L331.44858,-32.784393 L331.56866,-32.777855 L331.68878,-32.77132 L331.80887,-32.764797 L331.92896,-32.758278 L332.04904,-32.751766 L332.16913,-32.74526 L332.2892,-32.73876 L332.4093,-32.73227 L332.5294,-32.725784 L332.64948,-32.719307 L332.7696,-32.712837 L332.88968,-32.70637 L333.00977,-32.699917 L333.12985,-32.693466 L333.24994,-32.687023 L333.37003,-32.680584 L333.4901,-32.674156 L333.6102,-32.667732 L333.7303,-32.661316 L333.8504,-32.654907 L333.9705,-32.648502 L334.09058,-32.64211 L334.21066,-32.63572 L334.33075,-32.629337 L334.45084,-32.62296 L334.57092,-32.616592 L334.691,-32.61023 L334.8111,-32.603874 L334.9312,-32.597527 L335.0513,-32.591183 L335.1714,-32.58485 L335.29147,-32.57852 L335.41156,-32.5722 L335.53165,-32.565884 L335.65173,-32.559578 L335.77182,-32.553276 L335.8919,-32.54698 L336.01202,-32.54069 L336.1321,-32.534412 L336.2522,-32.528137 L336.37228,-32.52187 L336.49237,-32.51561 L336.61246,-32.509354 L336.73254,-32.503105 L336.85263,-32.496864 L336.97272,-32.49063 L337.09283,-32.4844 L337.21292,-32.478184 L337.333,-32.471966 L337.4531,-32.46576 L337.57318,-32.45956 L337.69327,-32.453365 L337.81335,-32.447178 L337.93344,-32.440994 L338.05353,-32.434822 L338.17365,-32.428654 L338.29373,-32.422493 L338.41382,-32.416336 L338.5339,-32.41019 L338.654,-32.40405 L338.77408,-32.397915 L338.89417,-32.391785 L339.01425,-32.385662 L339.13434,-32.379547 L339.25446,-32.37344 L339.37454,-32.36734 L339.49463,-32.361244 L339.61472,-32.355156 L339.7348,-32.34907 L339.8549,-32.343 L339.97498,-32.33693 L340.09506,-32.330868 L340.21515,-32.32481 L340.33527,-32.31876 L340.45535,-32.312717 L340.57544,-32.306683 L340.69553,-32.30065 L340.8156,-32.294632 L340.9357,-32.288612 L341.0558,-32.282604 L341.17587,-32.2766 L341.29596,-32.270603 L341.41608,-32.264614 L341.53616,-32.25863 L341.65625,-32.25265 L341.77634,-32.24668 L341.89642,-32.240715 L342.0165,-32.23476 L342.1366,-32.22881 L342.25668,-32.222862 L342.37677,-32.216923 L342.4969,-32.21099 L342.61697,-32.205067 L342.73706,-32.19915 L342.85715,-32.193237 L342.97723,-32.18733 L343.09732,-32.18143 L343.2174,-32.175537 L343.3375,-32.16965 L343.45758,-32.16377 L343.5777,-32.157898 L343.69778,-32.15203 L343.81787,-32.146168 L343.93796,-32.140312 L344.05804,-32.134464 L344.17813,-32.128624 L344.29822,-32.122787 L344.4183,-32.11696 L344.5384,-32.111137 L344.6585,-32.10532 L344.7786,-32.099514 L344.89868,-32.093708 L345.01877,-32.087914 L345.13885,-32.082123 L345.25894,-32.07634 L345.37903,-32.07056 L345.4991,-32.06479 L345.6192,-32.059025 L345.73932,-32.053265 L345.8594,-32.047512 L345.9795,-32.041767 L346.09958,-32.03603 L346.21967,-32.030296 L346.33975,-32.02457 L346.45984,-32.01885 L346.57993,-32.013134 L346.7,-32.007427 L346.82013,-32.001724 L346.94022,-31.99603 L347.0603,-31.990341 L347.1804,-31.98466 L347.30048,-31.978983 L347.42056,-31.973314 L347.54065,-31.96765 L347.66074,-31.961992 L347.78082,-31.956343 L347.90094,-31.950697 L348.02103,-31.945059 L348.1411,-31.939428 L348.2612,-31.933802 L348.3813,-31.928183 L348.50137,-31.92257 L348.62146,-31.916964 L348.74155,-31.911362 L348.86163,-31.905767 L348.98175,-31.90018 L349.10184,-31.894598 L349.22192,-31.889023 L349.342,-31.883453 L349.4621,-31.877892 L349.58218,-31.872334 L349.70227,-31.866783 L349.82236,-31.86124 L349.94244,-31.855701 L350.06256,-31.85017 L350.18265,-31.844645 L350.30273,-31.839125 L350.42282,-31.833612 L350.5429,-31.828106 L350.663,-31.822605 L350.78308,-31.81711 L350.90317,-31.811623 L351.02325,-31.80614 L351.14337,-31.800665 L351.26346,-31.795195 L351.38354,-31.789732 L351.50363,-31.784273 L351.62372,-31.778824 L351.7438,-31.773378 L351.8639,-31.767939 L351.98398,-31.762506 L352.10406,-31.75708 L352.22418,-31.751661 L352.34427,-31.746246 L352.46436,-31.740839 L352.58444,-31.735437 L352.70453,-31.730042 L352.82462,-31.724651 L352.9447,-31.719269 L353.0648,-31.713892 L353.18488,-31.70852 L353.305,-31.703156 L353.42508,-31.697798 L353.54517,-31.692444 L353.66525,-31.687098 L353.78534,-31.681757 L353.90543,-31.676424 L354.0255,-31.671095 L354.1456,-31.665773 L354.2657,-31.660458 L354.3858,-31.655148 L354.5059,-31.649845 L354.62598,-31.644547 L354.74606,-31.639256 L354.86615,-31.63397 L354.98624,-31.62869 L355.10632,-31.623417 L355.2264,-31.61815 L355.3465,-31.612888 L355.4666,-31.607634 L355.5867,-31.602385 L355.7068,-31.597143 L355.82687,-31.591906 L355.94696,-31.586674 L356.06705,-31.58145 L356.18713,-31.576231 L356.30722,-31.571018 L356.4273,-31.565813 L356.54742,-31.560612 L356.6675,-31.555418 L356.7876,-31.550228 L356.90768,-31.545046 L357.02777,-31.53987 L357.14786,-31.5347 L357.26794,-31.529535 L357.38803,-31.524378 L357.50812,-31.519224 L357.62823,-31.514078 L357.74832,-31.508938 L357.8684,-31.503803 L357.9885,-31.498676 L358.10858,-31.493553 L358.22867,-31.488438 L358.34875,-31.483326 L358.46884,-31.478222 L358.58893,-31.473124 L358.70905,-31.46803 L358.82913,-31.462946 L358.94922,-31.457865 L359.0693,-31.452791 L359.1894,-31.447721 L359.30948,-31.44266 L359.42957,-31.437603 L359.54965,-31.432552 L359.66974,-31.427507 L359.78986,-31.42247 L359.90994,-31.417437 L360.03003,-31.41241 L360.15012,-31.407389 L360.2702,-31.402374 L360.3903,-31.397366 L360.51038,-31.392363 L360.63046,-31.387365 L360.75055,-31.382374 L360.87067,-31.37739 L360.99075,-31.37241 L361.11084,-31.367437 L361.23093,-31.362469 L361.351,-31.357508 L361.4711,-31.352552 L361.5912,-31.347603 L361.71127,-31.342659 L361.83136,-31.33772 L361.95148,-31.332788 L362.07156,-31.327862 L362.19165,-31.322943 L362.31174,-31.318027 L362.43182,-31.313118 L362.5519,-31.308216 L362.672,-31.30332 L362.79208,-31.29843 L362.91217,-31.293543 L363.0323,-31.288664 L363.15237,-31.28379 L363.27246,-31.278923 L363.39255,-31.274063 L363.51263,-31.269207 L363.63272,-31.264357 L363.7528,-31.259512 L363.8729,-31.254675 L363.99298,-31.249842 L364.1131,-31.245016 L364.2332,-31.240196 L364.35327,-31.23538 L364.47336,-31.230572 L364.59344,-31.225769 L364.71353,-31.220972 L364.83362,-31.216179 L364.9537,-31.211393 L365.0738,-31.206614 L365.1939,-31.20184 L365.314,-31.197071 L365.43408,-31.19231 L365.55417,-31.187553 L365.67426,-31.182802 L365.79434,-31.178057 L365.91443,-31.173317 L366.03452,-31.168585 L366.1546,-31.163857 L366.27472,-31.159136 L366.3948,-31.154419 L366.5149,-31.149708 L366.63498,-31.145004 L366.75507,-31.140305 L366.87515,-31.135612 L366.99524,-31.130926 L367.11533,-31.126244 L367.2354,-31.121569 L367.35553,-31.116898 L367.47562,-31.112234 L367.5957,-31.107576 L367.7158,-31.102922 L367.83588,-31.098276 L367.95596,-31.093636 L368.07605,-31.088999 L368.19614,-31.08437 L368.31622,-31.079746 L368.43634,-31.075129 L368.55643,-31.070515 L368.6765,-31.065908 L368.7966,-31.061308 L368.9167,-31.056713 L369.03677,-31.052122 L369.15686,-31.047539 L369.27695,-31.042961 L369.39703,-31.03839 L369.51715,-31.033821 L369.63724,-31.02926 L369.75732,-31.024706 L369.8774,-31.020155 L369.9975,-31.015612 L370.11758,-31.011074 L370.23767,-31.006542 L370.35776,-31.002014 L370.47784,-30.997494 L370.59796,-30.992977 L370.71805,-30.988468 L370.83813,-30.983965 L370.95822,-30.979465 L371.0783,-30.974974 L371.1984,-30.970486 L371.31848,-30.966005 L371.43857,-30.961529 L371.55865,-30.957058 L371.67877,-30.952595 L371.79886,-30.948135 L371.91895,-30.943682 L372.03903,-30.939236 L372.15912,-30.934793 L372.2792,-30.930357 L372.3993,-30.925926 L372.51938,-30.921501 L372.63947,-30.917082 L372.75958,-30.912668 L372.87967,-30.90826 L372.99976,-30.903858 L373.11984,-30.899462 L373.23993,-30.895071 L373.36002,-30.890686 L373.4801,-30.886305 L373.6002,-30.881931 L373.72028,-30.877562 L373.8404,-30.8732 L373.96048,-30.868841 L374.08057,-30.86449 L374.20065,-30.860144 L374.32074,-30.855804 L374.44083,-30.851469 L374.5609,-30.84714 L374.681,-30.842815 L374.8011,-30.838497 L374.9212,-30.834185 L375.0413,-30.829878 L375.16138,-30.825577 L375.28146,-30.82128 L375.40155,-30.81699 L375.52164,-30.812706 L375.64172,-30.808426 L375.7618,-30.804153 L375.8819,-30.799885 L376.002,-30.795622 L376.1221,-30.791365 L376.2422,-30.787113 L376.36227,-30.782867 L376.48236,-30.778627 L376.60245,-30.774393 L376.72253,-30.770164 L376.84262,-30.765942 L376.9627,-30.761723 L377.08282,-30.757511 L377.2029,-30.753304 L377.323,-30.749102 L377.44308,-30.744905 L377.56317,-30.740715 L377.68326,-30.73653 L377.80334,-30.732351 L377.92343,-30.728178 L378.04352,-30.72401 L378.16364,-30.719847 L378.28372,-30.71569 L378.4038,-30.711538 L378.5239,-30.707392 L378.64398,-30.70325 L378.76407,-30.699116 L378.88416,-30.694986 L379.00424,-30.690863 L379.12433,-30.686745 L379.24445,-30.68263 L379.36453,-30.678524 L379.48462,-30.674421 L379.6047,-30.670324 L379.7248,-30.666233 L379.84488,-30.662148 L379.96497,-30.658068 L380.08505,-30.653994 L380.20514,-30.649923 L380.32526,-30.64586 L380.44534,-30.641802 L380.56543,-30.637749 L380.68552,-30.633701 L380.8056,-30.62966 L380.9257,-30.625624 L381.04578,-30.621592 L381.16586,-30.617567 L381.28595,-30.613546 L381.40607,-30.609533 L381.52615,-30.605524 L381.64624,-30.60152 L381.76633,-30.59752 L381.8864,-30.593529 L382.0065,-30.589542 L382.1266,-30.58556 L382.24667,-30.581583 L382.36676,-30.577612 L382.48688,-30.573647 L382.60696,-30.569687 L382.72705,-30.565731 L382.84714,-30.561783 L382.96722,-30.557838 L383.0873,-30.5539 L383.2074,-30.549967 L383.32748,-30.54604 L383.44757,-30.542118 L383.5677,-30.5382 L383.68777,-30.53429 L383.80786,-30.530384 L383.92795,-30.526484 L384.04803,-30.522589 L384.16812,-30.518698 L384.2882,-30.514814 L384.4083,-30.510935 L384.52838,-30.507061 L384.6485,-30.503193 L384.7686,-30.49933 L384.88867,-30.495474 L385.00876,-30.491621 L385.12885,-30.487774 L385.24893,-30.483932 L385.36902,-30.480097 L385.4891,-30.476267 L385.6092,-30.472443 L385.7293,-30.468622 L385.8494,-30.464808 L385.96948,-30.460999 L386.08957,-30.457195 L386.20966,-30.453398 L386.32974,-30.449604 L386.44983,-30.445818 L386.56992,-30.442036 L386.69,-30.438257 L386.81012,-30.434486 L386.9302,-30.430721 L387.0503,-30.42696 L387.17038,-30.423204 L387.29047,-30.419455 L387.41055,-30.41571 L387.53064,-30.41197 L387.65073,-30.408236 L387.7708,-30.404509 L387.89093,-30.400785 L388.01102,-30.397066 L388.1311,-30.393354 L388.2512,-30.389647 L388.37128,-30.385944 L388.49136,-30.382248 L388.61145,-30.378557 L388.73154,-30.37487 L388.85162,-30.37119 L388.97174,-30.367514 L389.09183,-30.363844 L389.2119,-30.36018 L389.332,-30.35652 L389.4521,-30.352865 L389.57217,-30.349216 L389.69226,-30.345573 L389.81235,-30.341934 L389.93243,-30.338303 L390.05255,-30.334675 L390.17264,-30.331053 L390.29272,-30.327435 L390.4128,-30.323824 L390.5329,-30.320217 L390.65298,-30.316616 L390.77307,-30.313019 L390.89316,-30.30943 L391.01328,-30.305843 L391.13336,-30.302263 L391.25345,-30.298689 L391.37354,-30.29512 L391.49362,-30.291555 L391.6137,-30.287996 L391.7338,-30.284443 L391.85388,-30.280893 L391.97397,-30.277351 L392.0941,-30.273813 L392.21417,-30.27028 L392.33426,-30.266752 L392.45435,-30.263231 L392.57443,-30.259714 L392.69452,-30.256203 L392.8146,-30.252695 L392.9347,-30.249195 L393.05478,-30.245699 L393.1749,-30.242208 L393.29498,-30.238722 L393.41507,-30.235243 L393.53516,-30.231768 L393.65524,-30.228298 L393.77533,-30.224834 L393.89542,-30.221375 L394.0155,-30.21792 L394.1356,-30.214472 L394.2557,-30.21103 L394.3758,-30.20759 L394.49588,-30.204157 L394.61597,-30.20073 L394.73605,-30.197306 L394.85614,-30.19389 L394.97623,-30.190477 L395.0963,-30.187069 L395.2164,-30.183668 L395.33652,-30.180271 L395.4566,-30.17688 L395.5767,-30.173494 L395.69678,-30.170113 L395.81686,-30.166737 L395.93695,-30.163366 L396.05704,-30.160002 L396.17712,-30.156641 L396.2972,-30.153286 L396.41733,-30.149937 L396.5374,-30.146593 L396.6575,-30.143253 L396.7776,-30.13992 L396.89767,-30.13659 L397.01776,-30.133266 L397.13785,-30.129948 L397.25793,-30.126635 L397.37802,-30.123325 L397.49814,-30.120022 L397.61823,-30.116724 L397.7383,-30.113432 L397.8584,-30.110144 L397.9785,-30.106861 L398.09857,-30.103584 L398.21866,-30.100313 L398.33875,-30.097046 L398.45883,-30.093784 L398.57895,-30.090527 L398.69904,-30.087276 L398.81912,-30.08403 L398.9392,-30.08079 L399.0593,-30.077553 L399.17938,-30.074322 L399.29947,-30.071096 L399.41956,-30.067877 L399.53964,-30.064661 L399.65976,-30.061451 L399.77985,-30.058245 L399.89993,-30.055046 L400.02002,-30.051851 L400.1401,-30.04866 L400.2602,-30.045477 L400.38028,-30.042297 L400.50037,-30.039124 L400.62045,-30.035954 L400.74057,-30.03279 L400.86066,-30.02963 L400.98074,-30.026478 L401.10083,-30.023329 L401.22092,-30.020185 L401.341,-30.017048 L401.4611,-30.013914 L401.58118,-30.010786 L401.70126,-30.007662 L401.82138,-30.004545 L401.94147,-30.001432 L402.06155,-29.998323 L402.18164,-29.995222 L402.30173,-29.992125 L402.4218,-29.989033 L402.5419,-29.985945 L402.662,-29.982862 L402.78207,-29.979786 L402.9022,-29.976713 L403.02228,-29.973646 L403.14236,-29.970585 L403.26245,-29.96753 L403.38254,-29.964478 L403.50262,-29.96143 L403.6227,-29.95839 L403.7428,-29.955353 L403.86288,-29.952322 L403.983,-29.949295 L404.1031,-29.946274 L404.22318,-29.943258 L404.34326,-29.940248 L404.46335,-29.937243 L404.58344,-29.93424 L404.70352,-29.931246 L404.8236,-29.928255 L404.9437,-29.92527 L405.0638,-29.922289 L405.1839,-29.919313 L405.304,-29.916344 L405.42407,-29.913378 L405.54416,-29.910418 L405.66425,-29.907463 L405.78433,-29.904512 L405.90442,-29.901567 L406.0245,-29.898628 L406.14462,-29.895693 L406.2647,-29.892763 L406.3848,-29.88984 L406.50488,-29.886919 L406.62497,-29.884005 L406.74506,-29.881094 L406.86514,-29.87819 L406.98523,-29.87529 L407.10532,-29.872396 L407.22543,-29.869507 L407.34552,-29.866621 L407.4656,-29.863743 L407.5857,-29.860868 L407.70578,-29.857998 L407.82587,-29.855135 L407.94595,-29.852276 L408.06604,-29.84942 L408.18613,-29.846571 L408.30624,-29.843727 L408.42633,-29.840889 L408.54642,-29.838055 L408.6665,-29.835226 L408.7866,-29.832401 L408.90668,-29.829582 L409.02676,-29.826769 L409.14685,-29.82396 L409.26694,-29.821156 L409.38705,-29.818356 L409.50714,-29.815561 L409.62723,-29.812773 L409.7473,-29.80999 L409.8674,-29.80721 L409.9875,-29.804436 L410.10757,-29.801668 L410.22766,-29.798903 L410.34775,-29.796144 L410.46786,-29.79339 L410.58795,-29.790642 L410.70804,-29.787897 L410.82813,-29.785158 L410.9482,-29.782425 L411.0683,-29.779696 L411.1884,-29.776972 L411.30847,-29.774252 L411.42856,-29.77154 L411.54868,-29.76883 L411.66876,-29.766127 L411.78885,-29.763428 L411.90894,-29.760733 L412.02902,-29.758043 L412.1491,-29.75536 L412.2692,-29.75268 L412.38928,-29.750006 L412.50937,-29.747337 L412.6295,-29.744673 L412.74957,-29.742014 L412.86966,-29.739359 L412.98975,-29.73671 L413.10983,-29.734066 L413.22992,-29.731426 L413.35,-29.728792 L413.4701,-29.726164 L413.59018,-29.72354 L413.7103,-29.720919 L413.83038,-29.718304 L413.95047,-29.715694 L414.07056,-29.71309 L414.19064,-29.710491 L414.31073,-29.707895 L414.43082,-29.705307 L414.5509,-29.70272 L414.671,-29.700142 L414.7911,-29.697567 L414.9112,-29.694996 L415.03128,-29.692432 L415.15137,-29.68987 L415.27145,-29.687317 L415.39154,-29.684767 L415.51163,-29.68222 L415.6317,-29.679682 L415.7518,-29.677145 L415.87192,-29.674616 L415.992,-29.67209 L416.1121,-29.669569 L416.23218,-29.667053 L416.35226,-29.664543 L416.47235,-29.662037 L416.59244,-29.659536 L416.71252,-29.65704 L416.8326,-29.654549 L416.95273,-29.652063 L417.0728,-29.649582 L417.1929,-29.647106 L417.313,-29.644634 L417.43307,-29.642168 L417.55316,-29.639708 L417.67325,-29.63725 L417.79333,-29.6348 L417.91342,-29.632353 L418.03354,-29.629911 L418.15363,-29.627474 L418.2737,-29.625042 L418.3938,-29.622616 L418.5139,-29.620193 L418.63397,-29.617775 L418.75406,-29.615364 L418.87415,-29.612955 L418.99423,-29.610554 L419.11435,-29.608156 L419.23444,-29.605762 L419.35452,-29.603374 L419.4746,-29.600992 L419.5947,-29.598614 L419.71478,-29.596241 L419.83487,-29.593874 L419.95496,-29.591509 L420.07504,-29.589151 L420.19516,-29.586798 L420.31525,-29.58445 L420.43533,-29.582106 L420.55542,-29.579767 L420.6755,-29.577433 L420.7956,-29.575104 L420.91568,-29.572779 L421.03577,-29.57046 L421.15585,-29.568146 L421.27597,-29.565836 L421.39606,-29.563532 L421.51614,-29.561232 L421.63623,-29.558937 L421.75632,-29.556646 L421.8764,-29.554361 L421.9965,-29.55208 L422.11658,-29.549805 L422.23666,-29.547535 L422.35678,-29.545269 L422.47687,-29.543009 L422.59695,-29.540752 L422.71704,-29.538502 L422.83713,-29.536255 L422.9572,-29.534014 L423.0773,-29.531776 L423.1974,-29.529545 L423.31747,-29.527319 L423.4376,-29.525097 L423.55768,-29.52288 L423.67776,-29.520668 L423.79785,-29.518461 L423.91794,-29.516258 L424.03802,-29.514061 L424.1581,-29.511868 L424.2782,-29.50968 L424.3983,-29.507496 L424.5184,-29.505318 L424.6385,-29.503145 L424.75858,-29.500977 L424.87866,-29.498812 L424.99875,-29.496655 L425.11884,-29.4945 L425.23892,-29.49235 L425.359,-29.490206 L425.4791,-29.488066 L425.5992,-29.485931 L425.7193,-29.483803 L425.8394,-29.481678 L425.95947,-29.479557 L426.07956,-29.477442 L426.19965,-29.47533 L426.31973,-29.473227 L426.43982,-29.471125 L426.5599,-29.469028 L426.68002,-29.466938 L426.8001,-29.464851 L426.9202,-29.46277 L427.04028,-29.460693 L427.16037,-29.458622 L427.28046,-29.456554 L427.40054,-29.454493 L427.52063,-29.452435 L427.64072,-29.450382 L427.76083,-29.448334 L427.88092,-29.446291 L428.001,-29.444254 L428.1211,-29.44222 L428.24118,-29.440191 L428.36127,-29.438168 L428.48135,-29.43615 L428.60144,-29.434135 L428.72153,-29.432125 L428.84164,-29.430122 L428.96173,-29.428122 L429.08182,-29.426126 L429.2019,-29.424137 L429.322,-29.422152 L429.44208,-29.420172 L429.56216,-29.418196 L429.68225,-29.416225 L429.80234,-29.414259 L429.92245,-29.412298 L430.04254,-29.410341 L430.16263,-29.40839 L430.2827,-29.406443 L430.4028,-29.404501 L430.5229,-29.402565 L430.64297,-29.400633 L430.76306,-29.398705 L430.88315,-29.396782 L431.00327,-29.394863 L431.12335,-29.39295 L431.24344,-29.391043 L431.36353,-29.38914 L431.4836,-29.38724 L431.6037,-29.385345 L431.7238,-29.383457 L431.84387,-29.381573 L431.96396,-29.379692 L432.08408,-29.377817 L432.20416,-29.375948 L432.32425,-29.374083 L432.44434,-29.372221 L432.56442,-29.370365 L432.6845,-29.368515 L432.8046,-29.366669 L432.92468,-29.364826 L433.04477,-29.36299 L433.1649,-29.361158 L433.28497,-29.359331 L433.40506,-29.35751 L433.52515,-29.355692 L433.64523,-29.353878 L433.76532,-29.35207 L433.8854,-29.350267 L434.0055,-29.348469 L434.12558,-29.346674 L434.2457,-29.344885 L434.36578,-29.343102 L434.48587,-29.341322 L434.60596,-29.339548 L434.72604,-29.337778 L434.84613,-29.336012 L434.96622,-29.334251 L435.0863,-29.332497 L435.2064,-29.330746 L435.3265,-29.328999 L435.4466,-29.32726 L435.56668,-29.325521 L435.68677,-29.32379 L435.80685,-29.322063 L435.92694,-29.320341 L436.04703,-29.318623 L436.1671,-29.31691 L436.2872,-29.315203 L436.40732,-29.3135 L436.5274,-29.3118 L436.6475,-29.310106 L436.76758,-29.308416 L436.88766,-29.306732 L437.00775,-29.305054 L437.12784,-29.30338 L437.24792,-29.301708 L437.368,-29.300043 L437.48813,-29.298382 L437.60822,-29.296726 L437.7283,-29.295076 L437.8484,-29.293428 L437.96848,-29.291788 L438.08856,-29.29015 L438.20865,-29.288519 L438.32874,-29.28689 L438.44882,-29.285269 L438.56894,-29.28365 L438.68903,-29.282038 L438.8091,-29.280428 L438.9292,-29.278826 L439.0493,-29.277225 L439.16937,-29.27563 L439.28946,-29.274042 L439.40955,-29.272457 L439.52963,-29.270878 L439.64975,-29.269302 L439.76984,-29.26773 L439.88992,-29.266165 L440.01,-29.264605 L440.1301,-29.263048 L440.25018,-29.261496 L440.37027,-29.259949 L440.49036,-29.258408 L440.61044,-29.256868 L440.73056,-29.255337 L440.85065,-29.253809 L440.97073,-29.252285 L441.09082,-29.250767 L441.2109,-29.249252 L441.331,-29.247744 L441.45108,-29.246239 L441.57117,-29.24474 L441.69125,-29.243244 L441.81137,-29.241753 L441.93146,-29.240267 L442.05154,-29.238787 L442.17163,-29.23731 L442.29172,-29.235838 L442.4118,-29.234371 L442.5319,-29.23291 L442.65198,-29.231453 L442.77206,-29.23 L442.89218,-29.228552 L443.01227,-29.227108 L443.13235,-29.22567 L443.25244,-29.224236 L443.37253,-29.222807 L443.4926,-29.221382 L443.6127,-29.219963 L443.7328,-29.218548 L443.85287,-29.217138 L443.973,-29.215733 L444.09308,-29.21433 L444.21317,-29.212934 L444.33325,-29.211544 L444.45334,-29.210155 L444.57343,-29.208775 L444.6935,-29.207397 L444.8136,-29.206024 L444.9337,-29.204657 L445.0538,-29.203293 L445.1739,-29.201935 L445.29398,-29.20058 L445.41406,-29.19923 L445.53415,-29.197886 L445.65424,-29.196547 L445.77432,-29.195211 L445.8944,-29.19388 L446.0145,-29.192554 L446.1346,-29.191235 L446.2547,-29.189917 L446.3748,-29.188606 L446.49487,-29.187298 L446.61496,-29.185997 L446.73505,-29.184698 L446.85513,-29.183405 L446.97522,-29.182117 L447.0953,-29.180834 L447.21542,-29.179554 L447.3355,-29.17828 L447.4556,-29.177011 L447.57568,-29.175745 L447.69577,-29.174486 L447.81586,-29.173231 L447.93594,-29.17198 L448.05603,-29.170732 L448.17612,-29.16949 L448.29623,-29.168255 L448.41632,-29.167023 L448.5364,-29.165794 L448.6565,-29.164572 L448.77658,-29.163355 L448.89667,-29.162142 L449.01675,-29.160933 L449.13684,-29.159729 L449.25693,-29.15853 L449.37704,-29.157333 L449.49713,-29.156143 L449.61722,-29.154959 L449.7373,-29.153778 L449.8574,-29.152601 L449.97748,-29.15143 L450.09756,-29.150263 L450.21765,-29.149101 L450.33777,-29.147943 L450.45786,-29.146791 L450.57794,-29.145643 L450.69803,-29.1445 L450.8181,-29.143362 L450.9382,-29.142227 L451.0583,-29.141098 L451.17838,-29.139973 L451.29846,-29.138853 L451.41858,-29.137737 L451.53867,-29.136627 L451.65875,-29.13552 L451.77884,-29.13442 L451.89893,-29.133324 L452.019,-29.13223 L452.1391,-29.131144 L452.2592,-29.13006 L452.37927,-29.128983 L452.4994,-29.127909 L452.61948,-29.12684 L452.73956,-29.125776 L452.85965,-29.124716 L452.97974,-29.123661 L453.09982,-29.122612 L453.2199,-29.121567 L453.34,-29.120525 L453.46008,-29.11949 L453.5802,-29.118458 L453.7003,-29.11743 L453.82037,-29.116407 L453.94046,-29.11539 L454.06055,-29.114378 L454.18063,-29.113369 L454.30072,-29.112366 L454.4208,-29.111366 L454.5409,-29.110373 L454.661,-29.109383 L454.7811,-29.108398 L454.90118,-29.107418 L455.02127,-29.106441 L455.14136,-29.10547 L455.26144,-29.104504 L455.38153,-29.103542 L455.50162,-29.102585 L455.6217,-29.101633 L455.74182,-29.100685 L455.8619,-29.099741 L455.982,-29.098803 L456.10208,-29.097868 L456.22217,-29.09694 L456.34225,-29.096014 L456.46234,-29.095095 L456.58243,-29.09418 L456.7025,-29.09327 L456.82263,-29.092363 L456.94272,-29.091461 L457.0628,-29.090565 L457.1829,-29.089672 L457.30298,-29.088785 L457.42307,-29.087902 L457.54315,-29.087023 L457.66324,-29.08615 L457.78333,-29.085281 L457.90344,-29.084417 L458.02353,-29.083557 L458.14362,-29.082703 L458.2637,-29.081852 L458.3838,-29.081005 L458.50388,-29.080164 L458.62396,-29.079329 L458.74405,-29.078495 L458.86414,-29.07767 L458.98425,-29.076845 L459.10434,-29.076029 L459.22443,-29.075214 L459.3445,-29.074406 L459.4646,-29.0736 L459.5847,-29.072802 L459.70477,-29.072008 L459.82486,-29.071217 L459.94495,-29.07043 L460.06506,-29.06965 L460.18515,-29.068874 L460.30524,-29.068102 L460.42532,-29.067335 L460.5454,-29.066572 L460.6655,-29.065815 L460.78558,-29.065062 L460.90567,-29.064314 L461.02576,-29.06357 L461.14587,-29.06283 L461.26596,-29.062096 L461.38605,-29.061365 L461.50613,-29.06064 L461.62622,-29.05992 L461.7463,-29.059202 L461.8664,-29.05849 L461.98648,-29.057785 L462.10657,-29.057081 L462.22668,-29.056385 L462.34677,-29.05569 L462.46686,-29.055002 L462.58694,-29.05432 L462.70703,-29.05364 L462.82712,-29.052965 L462.9472,-29.052296 L463.0673,-29.05163 L463.18738,-29.050968 L463.3075,-29.050312 L463.42758,-29.049662 L463.54767,-29.049015 L463.66776,-29.048372 L463.78784,-29.047735 L463.90793,-29.047102 L464.028,-29.046473 L464.1481,-29.045849 L464.2682,-29.04523 L464.3883,-29.044615 L464.5084,-29.044006 L464.62848,-29.0434 L464.74857,-29.042799 L464.86865,-29.042204 L464.98874,-29.041613 L465.10883,-29.041025 L465.2289,-29.040443 L465.349,-29.039865 L465.46912,-29.039293 L465.5892,-29.038725 L465.7093,-29.03816 L465.82938,-29.037601 L465.94946,-29.037046 L466.06955,-29.036497 L466.18964,-29.035952 L466.30972,-29.03541 L466.4298,-29.034874 L466.54993,-29.034344 L466.67,-29.033815 L466.7901,-29.033295 L466.9102,-29.032776 L467.03027,-29.032263 L467.15036,-29.031755 L467.27045,-29.03125 L467.39053,-29.030752 L467.51062,-29.030256 L467.63074,-29.029766 L467.75082,-29.029282 L467.8709,-29.028801 L467.991,-29.028324 L468.11108,-29.027853 L468.23117,-29.027386 L468.35126,-29.026924 L468.47134,-29.026466 L468.59143,-29.026012 L468.71155,-29.025564 L468.83163,-29.02512 L468.95172,-29.024681 L469.0718,-29.024246 L469.1919,-29.023817 L469.31198,-29.023392 L469.43207,-29.02297 L469.55215,-29.022554 L469.67224,-29.022142 L469.79236,-29.021734 L469.91245,-29.021332 L470.03253,-29.020935 L470.15262,-29.020542 L470.2727,-29.020153 L470.3928,-29.019768 L470.51288,-29.01939 L470.63297,-29.019014 L470.75305,-29.018644 L470.87317,-29.018278 L470.99326,-29.017918 L471.11334,-29.017561 L471.23343,-29.01721 L471.35352,-29.016863 L471.4736,-29.01652 L471.5937,-29.016182 L471.71378,-29.015848 L471.83386,-29.01552 L471.95398,-29.015196 L472.07407,-29.014875 L472.19415,-29.01456 L472.31424,-29.01425 L472.43433,-29.013945 L472.5544,-29.013643 L472.6745,-29.013346 L472.7946,-29.013054 L472.91467,-29.012768 L473.0348,-29.012484 L473.15488,-29.012207 L473.27496,-29.011932 L473.39505,-29.011663 L473.51514,-29.011398 L473.63522,-29.011139 L473.7553,-29.010883 L473.8754,-29.010633 L473.99548,-29.010387 L474.1156,-29.010147 L474.2357,-29.009909 L474.35577,-29.009678 L474.47586,-29.009449 L474.59595,-29.009226 L474.71603,-29.009008 L474.83612,-29.008795 L474.9562,-29.008585 L475.0763,-29.00838 L475.1964,-29.00818 L475.3165,-29.007986 L475.43658,-29.007795 L475.55667,-29.007608 L475.67676,-29.007427 L475.79684,-29.00725 L475.91693,-29.007078 L476.03702,-29.00691 L476.1571,-29.006746 L476.27722,-29.006588 L476.3973,-29.006433 L476.5174,-29.006285 L476.63748,-29.00614 L476.75757,-29.005999 L476.87766,-29.005863 L476.99774,-29.005733 L477.11783,-29.005606 L477.2379,-29.005484 L477.35803,-29.005367 L477.47812,-29.005255 L477.5982,-29.005146 L477.7183,-29.005043 L477.83838,-29.004944 L477.95847,-29.00485 L478.07855,-29.00476 L478.19864,-29.004675 L478.31873,-29.004595 L478.43884,-29.004519 L478.55893,-29.004448 L478.67902,-29.004381 L478.7991,-29.00432 L478.9192,-29.004261 L479.03928,-29.00421 L479.15936,-29.00416 L479.27945,-29.004116 L479.39954,-29.004078 L479.51965,-29.004044 L479.63974,-29.004013 L479.75983,-29.003988 L479.8799,-29.003967 L480,-29.003952" fill="none" stroke="burlywood" stroke-linejoin="round" stroke-width="2"/>
</g>
</g>
<g>
<g>
<line stroke="black" stroke-width="1" x1="0" x2="0" y1="0" y2="10"/>
<line stroke="black" stroke-width="1" x1="96.06004503377532" x2="96.06004503377532" y1="0" y2="10"/>
<line stroke="black" stroke-width="1" x1="192.12009006755065" x2="192.12009006755065" y1="0" y2="10"/>
<line stroke="black" stroke-width="1" x1="288.18013510132596" x2="288.18013510132596" y1="0" y2="10"/>
<line stroke="black" stroke-width="1" x1="384.2401801351013" x2="384.2401801351013" y1="0" y2="10"/>
</g>
<line stroke="black" stroke-width="1" x1="0" x2="480" y1="0" y2="0"/>
<g>
<text font-size="12" text-anchor="middle" x="0" y="20">
0
</text>
<text font-size="12" text-anchor="middle" x="96.06004503377532" y="20">
400
</text>
<text font-size="12" text-anchor="middle" x="192.12009006755065" y="20">
800
</text>
<text font-size="12" text-anchor="middle" x="288.18013510132596" y="20">
1200
</text>
<text font-size="12" text-anchor="middle" x="384.2401801351013" y="20">
1600
</text>
</g>
<text font-size="12" text-anchor="middle" x="240" y="30">

</text>
</g>
<g>
<g>
<line stroke="black" stroke-width="1" x1="0" x2="-10" y1="-56.666666666666664" y2="-56.666666666666664"/>
<line stroke="black" stroke-width="1" x1="0" x2="-10" y1="-170" y2="-170"/>
<line stroke="black" stroke-width="1" x1="0" x2="-10" y1="-283.3333333333333" y2="-283.3333333333333"/>
</g>
<line stroke="black" stroke-width="1" x1="0" x2="0" y1="0" y2="-340"/>
<g>
<text dominant-baseline="middle" font-size="12" text-anchor="end" x="-15" y="-56.666666666666664">
0
</text>
<text dominant-baseline="middle" font-size="12" text-anchor="end" x="-15" y="-170">
20
</text>
<text dominant-baseline="middle" font-size="12" text-anchor="end" x="-15" y="-283.3333333333333">
40
</text>
</g>
<text font-size="12" text-anchor="middle" transform="rotate(-90 -24 -170)" x="-24" y="-182">

</text>
</g>
</g>
</svg>