<svg viewBox="0 0 600 400" xmlns="http://www.w3.org/2000/svg">
<g transform="translate(72, 364)">
<g>
<g>
<path d="M0,-340 L0,-340 L4.848485,-31.6272 L9.69697,-234.58743 L14.545455,-180.16525 L19.39394,-110.73387 L24.242424,-247.38156 L29.09091,-103.65696 L33.939392,-195.62325 L38.78788,-211.73541 L43.636364,-53.60344 L48.484848,-334.3938 L53.333332,-7.3705263 L58.18182,-290.3271 L63.030304,-101.61479 L67.878784,-203.48251 L72.72727,-142.24661 L77.57576,-223.10378 L82.42424,-67.486115 L87.27273,-323.23184 L92.121216,-1.4199176 L96.969696,-293.89682 L101.818184,-135.5857 L106.666664,-113.470856 L111.51515,-287.21002 L116.36364,-24.904802 L121.21212,-321.6253 L126.06061,-27.605024 L130.90909,-280.8827 L135.75757,-122.03839 L140.60606,-130.37173 L145.45454,-291.70984 L150.30302,-4.395166 L155.15152,-335.07205 L160,-28.28591 L164.84848,-292.50858 L169.69698,-47.08824 L174.54546,-312.91895 L179.39394,-3.749809 L184.24243,-332.9303 L189.09091,-61.794483 L193.93939,-180.6746 L198.78787,-257.4621 L203.63637,-21.46607 L208.48485,-338.86612 L213.33333,-1.0418082 L218.18182,-338.03543 L223.0303,-0.000000000000018874025 L227.87878,-332.0652 L232.72728,-46.15054 L237.57576,-217.2989 L242.42424,-217.2989 L247.27272,-46.15054 L252.12122,-332.0652 L256.9697,-0 L261.81818,-338.03543 L266.66666,-1.0418082 L271.51514,-338.86612 L276.36365,-21.46607 L281.21213,-257.4621 L286.0606,-180.6746 L290.9091,-61.794483 L295.75757,-332.9303 L300.60605,-3.749809 L305.45456,-312.91895 L310.30304,-47.08824 L315.15152,-292.50858 L320,-28.28591 L324.84848,-335.07205 L329.69696,-4.395166 L334.54544,-291.70984 L339.39395,-130.37173 L344.24243,-122.03839 L349.0909,-280.8827 L353.9394,-27.605024 L358.78787,-321.6253 L363.63635,-24.904802 L368.48486,-287.21002 L373.33334,-113.470856 L378.18182,-135.5857 L383.0303,-293.89682 L387.87878,-1.4199176 L392.72726,-323.23184 L397.57574,-67.486115 L402.42426,-223.10378 L407.27274,-142.24661 L412.12122,-203.48251 L416.9697,-101.61479 L421.81818,-290.3271 L426.66666,-7.3705263 L431.51514,-334.3938 L436.36365,-53.60344 L441.21213,-211.73541 L446.0606,-195.62325 L450.9091,-103.65696 L455.75757,-247.38156 L460.60605,-110.73387 L465.45456,-180.16525 L470.30304,-234.58743 L475.15152,-31.6272 L480,-340" fill="none" stroke="burlywood" stroke-linejoin="round" stroke-width="2"/>
</g>
</g>
<g>
<g>
<line stroke="black" stroke-width="1" x1="0" x2="0" y1="0" y2="10"/>
<line stroke="black" stroke-width="1" x1="96" x2="96" y1="0" y2="10"/>
<line stroke="black" stroke-width="1" x1="192" x2="192" y1="0" y2="10"/>
<line stroke="black" stroke-width="1" x1="288" x2="288" y1="0" y2="10"/>
<line stroke="black" stroke-width="1" x1="384" x2="384" y1="0" y2="10"/>
<line stroke="black" stroke-width="1" x1="480" x2="480" y1="0" y2="10"/>
</g>
<line stroke="black" stroke-width="1" x1="0" x2="480" y1="0" y2="0"/>
<g>
<text font-size="12" text-anchor="middle" x="0" y="20">
0
</text>
<text font-size="12" text-anchor="middle" x="96" y="20">
0.2
</text>
<text font-size="12" text-anchor="middle" x="192" y="20">
0.4
</text>
<text font-size="12" text-anchor="middle" x="288" y="20">
0.6
</text>
<text font-size="12" text-anchor="middle" x="384" y="20">
0.8
</text>
<text font-size="12" text-anchor="middle" x="480" y="20">
1
</text>
</g>
<text font-size="12" text-anchor="middle" x="240" y="30">

</text>
</g>
<g>
<g>
<line stroke="black" stroke-width="1" x1="0" x2="-10" y1="-33.996202319215826" y2="-33.996202319215826"/>
<line stroke="black" stroke-width="1" x1="0" x2="-10" y1="-101.99704624827898" y2="-101.99704624827898"/>
<line stroke="black" stroke-width="1" x1="0" x2="-10" y1="-169.99789017734213" y2="-169.99789017734213"/>
<line stroke="black" stroke-width="1" x1="0" x2="-10" y1="-237.99873410640524" y2="-237.99873410640524"/>
<line stroke="black" stroke-width="1" x1="0" x2="-10" y1="-305.9995780354684" y2="-305.9995780354684"/>
</g>
<line stroke="black" stroke-width="1" x1="0" x2="0" y1="0" y2="-340"/>
<g>
<text dominant-baseline="middle" font-size="12" text-anchor="end" x="-15" y="-33.996202319215826">
-0.8
</text>
<text dominant-baseline="middle" font-size="12" text-anchor="end" x="-15" y="-101.99704624827898">
-0.4
</text>
<text dominant-baseline="middle" font-size="12" text-anchor="end" x="-15" y="-169.99789017734213">
0
</text>
<text dominant-baseline="middle" font-size="12" text-anchor="end" x="-15" y="-237.99873410640524">
0.4
</text>
<text dominant-baseline="middle" font-size="12" text-anchor="end" x="-15" y="-305.9995780354684">
0.8
</text>
</g>
<text font-size="12" text-anchor="middle" transform="rotate(-90 -48 -170)" x="-48" y="-182">

</text>
</g>
</g>
</svg>